<svg width="190" height="74" viewBox="0 0 190 74" fill="none" xmlns="http://www.w3.org/2000/svg">
<path d="M1 49V1.28569C1.35931 1.37596 1.79274 1.4842 2.29598 1.60873C3.94052 2.01568 6.33075 2.59672 9.31634 3.29382C15.2871 4.68794 23.6411 6.54669 33.1752 8.40557C52.2256 12.1198 76.0542 15.8481 95 15.8481C113.946 15.8481 137.774 12.1198 156.825 8.40557C166.359 6.54669 174.713 4.68794 180.684 3.29382C183.669 2.59672 186.059 2.01568 187.704 1.60873C188.207 1.4842 188.641 1.37596 189 1.28569V49C189 59.4934 180.493 68 170 68H20C9.50659 68 1 59.4934 1 49Z" fill="url(#paint0_linear_182_14351)" stroke="#FFFAEB" stroke-width="2"/>
<path d="M1 54V6.28569C1.35931 6.37596 1.79274 6.4842 2.29598 6.60873C3.94052 7.01568 6.33075 7.59672 9.31634 8.29382C15.2871 9.68794 23.6411 11.5467 33.1752 13.4056C52.2256 17.1198 76.0542 20.8481 95 20.8481C113.946 20.8481 137.774 17.1198 156.825 13.4056C166.359 11.5467 174.713 9.68794 180.684 8.29382C183.669 7.59672 186.059 7.01568 187.704 6.60873C188.207 6.4842 188.641 6.37596 189 6.28569V54C189 64.4934 180.493 73 170 73H20C9.50659 73 1 64.4934 1 54Z" fill="url(#paint1_linear_182_14351)" stroke="#FFFAEB" stroke-width="2"/>
<defs>
<linearGradient id="paint0_linear_182_14351" x1="95" y1="0" x2="95" y2="69" gradientUnits="userSpaceOnUse">
<stop stop-color="#EDB50E"/>
<stop offset="1" stop-color="#FBCD42"/>
</linearGradient>
<linearGradient id="paint1_linear_182_14351" x1="95" y1="5" x2="95" y2="74" gradientUnits="userSpaceOnUse">
<stop stop-color="#EDB50E"/>
<stop offset="1" stop-color="#FBCD42"/>
</linearGradient>
</defs>
</svg>
