<svg width="178" height="145" viewBox="0 0 178 145" fill="none" xmlns="http://www.w3.org/2000/svg">
<path d="M33.1797 62C32.8802 62 32.623 61.9089 32.4082 61.7266C32.1999 61.5443 32.0957 61.2871 32.0957 60.9551L32.0859 50.2715L30.0449 51.5801C29.9212 51.6647 29.7845 51.707 29.6348 51.707C29.4199 51.707 29.2344 51.6257 29.0781 51.4629C28.9219 51.3001 28.8438 51.1146 28.8438 50.9062C28.8438 50.6458 28.9707 50.4342 29.2246 50.2715L32.6328 48.1719C32.7826 48.0807 32.9811 48.0286 33.2285 48.0156C33.515 48.0156 33.7591 48.11 33.9609 48.2988C34.1693 48.4876 34.2734 48.7513 34.2734 49.0898V60.9551C34.2734 61.2871 34.1628 61.5443 33.9414 61.7266C33.7266 61.9089 33.4727 62 33.1797 62ZM43.1113 60.4473C43.5085 60.4473 43.86 60.3724 44.166 60.2227C44.4785 60.0664 44.7324 59.8451 44.9277 59.5586C45.1296 59.2721 45.2956 58.9596 45.4258 58.6211C45.5625 58.2826 45.6602 57.8919 45.7188 57.4492C45.7839 57.0065 45.8294 56.5964 45.8555 56.2188C45.8815 55.8346 45.8945 55.4115 45.8945 54.9492C45.8945 54.5521 45.8848 54.1875 45.8652 53.8555C45.8522 53.5169 45.8197 53.1556 45.7676 52.7715C45.722 52.3874 45.6569 52.0456 45.5723 51.7461C45.4941 51.4401 45.3835 51.1439 45.2402 50.8574C45.097 50.5645 44.931 50.3236 44.7422 50.1348C44.5534 49.9395 44.319 49.7832 44.0391 49.666C43.7656 49.5488 43.4564 49.4902 43.1113 49.4902C42.7728 49.4902 42.4668 49.5488 42.1934 49.666C41.9199 49.7832 41.6855 49.9362 41.4902 50.125C41.3014 50.3138 41.1354 50.5547 40.9922 50.8477C40.8555 51.1341 40.7448 51.4303 40.6602 51.7363C40.582 52.0358 40.5169 52.3776 40.4648 52.7617C40.4193 53.1458 40.3867 53.5072 40.3672 53.8457C40.3542 54.1842 40.3477 54.5521 40.3477 54.9492C40.3477 55.3398 40.3542 55.7012 40.3672 56.0332C40.3867 56.3587 40.4193 56.7168 40.4648 57.1074C40.5169 57.4915 40.582 57.8366 40.6602 58.1426C40.7383 58.4486 40.849 58.7513 40.9922 59.0508C41.1354 59.3503 41.3014 59.5977 41.4902 59.793C41.679 59.9883 41.9102 60.1478 42.1836 60.2715C42.4635 60.3887 42.7728 60.4473 43.1113 60.4473ZM43.1113 62.2148C42.4733 62.2148 41.8971 62.1237 41.3828 61.9414C40.8685 61.7591 40.429 61.4987 40.0645 61.1602C39.7064 60.8151 39.3971 60.4212 39.1367 59.9785C38.8763 59.5358 38.6712 59.0378 38.5215 58.4844C38.3717 57.9245 38.2611 57.3581 38.1895 56.7852C38.1243 56.2122 38.0918 55.6003 38.0918 54.9492C38.0918 54.1484 38.1406 53.4095 38.2383 52.7324C38.3359 52.0488 38.502 51.3945 38.7363 50.7695C38.9772 50.138 39.2832 49.6042 39.6543 49.168C40.0319 48.7253 40.5137 48.3737 41.0996 48.1133C41.6855 47.8529 42.3561 47.7227 43.1113 47.7227C43.8665 47.7227 44.5371 47.8529 45.123 48.1133C45.709 48.3737 46.1875 48.7253 46.5586 49.168C46.9362 49.6042 47.2422 50.138 47.4766 50.7695C47.7174 51.401 47.8867 52.0553 47.9844 52.7324C48.082 53.4095 48.1309 54.1484 48.1309 54.9492C48.1309 55.7305 48.082 56.4596 47.9844 57.1367C47.8932 57.8138 47.7272 58.4714 47.4863 59.1094C47.252 59.7409 46.9492 60.2812 46.5781 60.7305C46.207 61.1797 45.7253 61.541 45.1328 61.8145C44.5469 62.0814 43.873 62.2148 43.1113 62.2148Z" fill="#332701"/>
<path d="M85.3359 80.2148C84.4505 80.2148 83.6725 80.0846 83.002 79.8242C82.3379 79.5638 81.7161 79.1862 81.1367 78.6914C81 78.5742 80.9316 78.418 80.9316 78.2227C80.9316 77.9818 81.0228 77.7539 81.2051 77.5391C81.3939 77.3177 81.599 77.207 81.8203 77.207C81.957 77.207 82.0807 77.2526 82.1914 77.3438C83.1159 78.0794 84.138 78.4473 85.2578 78.4473C86.1758 78.4473 86.8691 78.1966 87.3379 77.6953C87.8132 77.1875 88.0508 76.4811 88.0508 75.5762C88.0508 74.7559 87.8164 74.1016 87.3477 73.6133C86.8854 73.1185 86.2734 72.8711 85.5117 72.8711C85.0104 72.8711 84.5221 72.985 84.0469 73.2129C83.5716 73.4342 83.1745 73.7077 82.8555 74.0332C82.8229 74.0658 82.7773 74.0885 82.7188 74.1016C82.6602 74.1146 82.5918 74.1211 82.5137 74.1211C82.2142 74.1211 81.9049 74.043 81.5859 73.8867C81.2734 73.7305 81.1172 73.5384 81.1172 73.3105V67.0605C81.1172 66.403 81.4753 66.0742 82.1914 66.0742H88.5781C88.8255 66.0742 89.0176 66.1589 89.1543 66.3281C89.291 66.4909 89.3594 66.6829 89.3594 66.9043C89.3594 67.1257 89.291 67.3177 89.1543 67.4805C89.0176 67.6432 88.8255 67.7246 88.5781 67.7246H82.8652L82.8555 72.168L82.9629 72.0703C83.0345 71.9987 83.1517 71.9141 83.3145 71.8164C83.4772 71.7122 83.666 71.6113 83.8809 71.5137C84.1022 71.416 84.3854 71.3346 84.7305 71.2695C85.0755 71.1979 85.4401 71.1621 85.8242 71.1621C87.1198 71.1621 88.1647 71.5788 88.959 72.4121C89.7598 73.2454 90.1602 74.3229 90.1602 75.6445C90.1602 77.0182 89.7044 78.125 88.793 78.9648C87.888 79.7982 86.7357 80.2148 85.3359 80.2148Z" fill="#332701"/>
<path d="M60.2773 74.8613C60.0625 74.8613 59.8802 74.7897 59.7305 74.6465C59.5807 74.5033 59.5059 74.3275 59.5059 74.1191C59.5059 73.8848 59.5905 73.6992 59.7598 73.5625C59.929 73.4258 60.1374 73.3574 60.3848 73.3574H68.7051C68.9264 73.3574 69.1185 73.4258 69.2812 73.5625C69.444 73.6992 69.5254 73.8848 69.5254 74.1191C69.5254 74.347 69.4408 74.5293 69.2715 74.666C69.1087 74.7962 68.9036 74.8613 68.6562 74.8613H60.2773ZM60.2773 70.8867C60.069 70.8867 59.8867 70.8151 59.7305 70.6719C59.5807 70.5221 59.5059 70.3464 59.5059 70.1445C59.5059 69.9102 59.5905 69.7246 59.7598 69.5879C59.929 69.4512 60.1374 69.3828 60.3848 69.3828H68.6562C68.8971 69.3828 69.1022 69.4512 69.2715 69.5879C69.4408 69.7181 69.5254 69.9036 69.5254 70.1445C69.5254 70.3659 69.4408 70.5449 69.2715 70.6816C69.1022 70.8184 68.8971 70.8867 68.6562 70.8867H60.2773Z" fill="#332701"/>
<path d="M47.584 86.8828C47.584 87.6315 47.4017 88.3509 47.0371 89.041C46.6725 89.7246 46.0833 90.4375 45.2695 91.1797L40.9043 95.3496H46.6367C46.8841 95.3496 47.0794 95.431 47.2227 95.5938C47.3659 95.75 47.4375 95.9421 47.4375 96.1699C47.4375 96.3913 47.3659 96.5866 47.2227 96.7559C47.0859 96.9186 46.8906 97 46.6367 97H39.8496C39.4525 97 39.1335 96.8958 38.8926 96.6875C38.6517 96.4727 38.5312 96.209 38.5312 95.8965C38.5312 95.8118 38.541 95.7272 38.5605 95.6426C38.5801 95.5514 38.6094 95.4635 38.6484 95.3789C38.6875 95.2878 38.7363 95.1999 38.7949 95.1152C38.86 95.0241 38.9349 94.9362 39.0195 94.8516L44.0879 89.7441C45.0514 88.7741 45.5332 87.8724 45.5332 87.0391C45.5332 86.3229 45.2923 85.7402 44.8105 85.291C44.3353 84.8418 43.7526 84.6172 43.0625 84.6172C42.7305 84.6172 42.4277 84.6367 42.1543 84.6758C41.8809 84.7148 41.6302 84.7767 41.4023 84.8613C41.181 84.946 41.002 85.0208 40.8652 85.0859C40.735 85.151 40.5658 85.2487 40.3574 85.3789C40.1556 85.5026 40.0091 85.5872 39.918 85.6328C39.8268 85.6784 39.7292 85.7012 39.625 85.7012C39.4036 85.7012 39.2018 85.6068 39.0195 85.418C38.8438 85.2292 38.7559 85.0176 38.7559 84.7832C38.7559 84.5033 38.8958 84.2819 39.1758 84.1191C39.8203 83.7285 40.4486 83.4323 41.0605 83.2305C41.679 83.0221 42.4115 82.918 43.2578 82.918C43.8763 82.918 44.4557 83.0254 44.9961 83.2402C45.5365 83.4486 45.9954 83.7318 46.373 84.0898C46.7507 84.4479 47.0469 84.8711 47.2617 85.3594C47.4766 85.8411 47.584 86.349 47.584 86.8828Z" fill="#332701"/>
<path d="M26 73H50" stroke="#332701" stroke-width="2" stroke-linecap="round"/>
<rect x="0.5" y="0.5" width="75" height="31" rx="15.5" stroke="black"/>
<path d="M10.064 21C9.86133 21 9.696 20.9413 9.568 20.824C9.45067 20.7067 9.392 20.552 9.392 20.36V10.36C9.392 10.168 9.45067 10.0133 9.568 9.896C9.696 9.77867 9.86133 9.72 10.064 9.72H13.184C14.9867 9.72 16.3787 10.2107 17.36 11.192C18.352 12.1627 18.848 13.5493 18.848 15.352C18.848 17.1547 18.352 18.5467 17.36 19.528C16.368 20.5093 14.976 21 13.184 21H10.064ZM13.104 19.88C16.0267 19.88 17.488 18.3707 17.488 15.352C17.488 12.344 16.0267 10.84 13.104 10.84H10.704V19.88H13.104ZM21.6841 21.08C21.4921 21.08 21.3321 21.0267 21.2041 20.92C21.0868 20.8027 21.0281 20.6427 21.0281 20.44V13.688C21.0281 13.4853 21.0868 13.3307 21.2041 13.224C21.3321 13.1067 21.4921 13.048 21.6841 13.048C21.8761 13.048 22.0308 13.1067 22.1481 13.224C22.2655 13.3307 22.3241 13.4853 22.3241 13.688V20.44C22.3241 20.6533 22.2655 20.8133 22.1481 20.92C22.0308 21.0267 21.8761 21.08 21.6841 21.08ZM21.6841 11.368C21.4281 11.368 21.2201 11.2933 21.0601 11.144C20.9001 10.9947 20.8201 10.7973 20.8201 10.552C20.8201 10.3173 20.9001 10.1253 21.0601 9.976C21.2201 9.82667 21.4281 9.752 21.6841 9.752C21.9401 9.752 22.1481 9.82667 22.3081 9.976C22.4681 10.1253 22.5481 10.3173 22.5481 10.552C22.5481 10.7973 22.4681 10.9947 22.3081 11.144C22.1481 11.2933 21.9401 11.368 21.6841 11.368ZM30.3629 13.448C30.4802 13.192 30.6669 13.064 30.9229 13.064C31.0829 13.064 31.2269 13.1173 31.3549 13.224C31.4829 13.3307 31.5469 13.464 31.5469 13.624C31.5469 13.72 31.5255 13.8053 31.4829 13.88L28.3629 20.6C28.2989 20.7387 28.2029 20.8507 28.0749 20.936C27.9469 21.0107 27.8082 21.048 27.6589 21.048C27.5202 21.048 27.3869 21.0107 27.2589 20.936C27.1309 20.8507 27.0295 20.7387 26.9549 20.6L23.8509 13.88C23.8082 13.8053 23.7869 13.7253 23.7869 13.64C23.7869 13.48 23.8562 13.3413 23.9949 13.224C24.1442 13.1067 24.3042 13.048 24.4749 13.048C24.5815 13.048 24.6829 13.08 24.7789 13.144C24.8855 13.208 24.9655 13.2987 25.0189 13.416L27.6909 19.416L30.3629 13.448ZM33.6216 21.08C33.4296 21.08 33.2696 21.0267 33.1416 20.92C33.0243 20.8027 32.9656 20.6427 32.9656 20.44V13.688C32.9656 13.4853 33.0243 13.3307 33.1416 13.224C33.2696 13.1067 33.4296 13.048 33.6216 13.048C33.8136 13.048 33.9683 13.1067 34.0856 13.224C34.203 13.3307 34.2616 13.4853 34.2616 13.688V20.44C34.2616 20.6533 34.203 20.8133 34.0856 20.92C33.9683 21.0267 33.8136 21.08 33.6216 21.08ZM33.6216 11.368C33.3656 11.368 33.1576 11.2933 32.9976 11.144C32.8376 10.9947 32.7576 10.7973 32.7576 10.552C32.7576 10.3173 32.8376 10.1253 32.9976 9.976C33.1576 9.82667 33.3656 9.752 33.6216 9.752C33.8776 9.752 34.0856 9.82667 34.2456 9.976C34.4056 10.1253 34.4856 10.3173 34.4856 10.552C34.4856 10.7973 34.4056 10.9947 34.2456 11.144C34.0856 11.2933 33.8776 11.368 33.6216 11.368ZM42.9404 9.64C43.143 9.64 43.303 9.69867 43.4204 9.816C43.5377 9.93333 43.5964 10.0827 43.5964 10.264V20.44C43.5964 20.632 43.5377 20.7867 43.4204 20.904C43.303 21.0213 43.143 21.08 42.9404 21.08C42.7377 21.08 42.5777 21.0213 42.4604 20.904C42.3537 20.7867 42.3004 20.632 42.3004 20.44V19.576C42.0657 20.0667 41.719 20.4453 41.2604 20.712C40.8124 20.9787 40.2844 21.112 39.6764 21.112C38.9937 21.112 38.391 20.9413 37.8684 20.6C37.3457 20.2587 36.9404 19.784 36.6524 19.176C36.3644 18.5573 36.2204 17.8427 36.2204 17.032C36.2204 16.232 36.3644 15.528 36.6524 14.92C36.9404 14.312 37.3457 13.8427 37.8684 13.512C38.391 13.1813 38.9937 13.016 39.6764 13.016C40.2844 13.016 40.8124 13.1493 41.2604 13.416C41.719 13.6827 42.0657 14.0613 42.3004 14.552V10.264C42.3004 10.072 42.3537 9.92267 42.4604 9.816C42.5777 9.69867 42.7377 9.64 42.9404 9.64ZM39.9324 20.04C40.6897 20.04 41.271 19.784 41.6764 19.272C42.0924 18.7493 42.3004 18.0133 42.3004 17.064C42.3004 16.1147 42.0924 15.384 41.6764 14.872C41.271 14.36 40.6897 14.104 39.9324 14.104C39.175 14.104 38.583 14.36 38.1564 14.872C37.7404 15.384 37.5324 16.104 37.5324 17.032C37.5324 17.9813 37.7404 18.7227 38.1564 19.256C38.583 19.7787 39.175 20.04 39.9324 20.04ZM52.0289 19.192C52.1462 19.192 52.2475 19.24 52.3329 19.336C52.4182 19.432 52.4609 19.5547 52.4609 19.704C52.4609 19.9707 52.2742 20.216 51.9009 20.44C51.5169 20.664 51.1115 20.8347 50.6849 20.952C50.2582 21.0587 49.8422 21.112 49.4369 21.112C48.2315 21.112 47.2769 20.7547 46.5729 20.04C45.8795 19.3253 45.5329 18.3387 45.5329 17.08C45.5329 16.28 45.6875 15.576 45.9969 14.968C46.3062 14.3493 46.7382 13.8693 47.2929 13.528C47.8582 13.1867 48.4982 13.016 49.2129 13.016C50.2262 13.016 51.0315 13.3467 51.6289 14.008C52.2262 14.6693 52.5249 15.5653 52.5249 16.696C52.5249 16.9093 52.4822 17.064 52.3969 17.16C52.3115 17.256 52.1729 17.304 51.9809 17.304H46.8289C46.9249 19.1387 47.7942 20.056 49.4369 20.056C49.8529 20.056 50.2102 20.0027 50.5089 19.896C50.8075 19.7787 51.1275 19.624 51.4689 19.432C51.7462 19.272 51.9329 19.192 52.0289 19.192ZM49.2289 14.024C48.5462 14.024 47.9969 14.2373 47.5809 14.664C47.1755 15.0907 46.9355 15.6933 46.8609 16.472H51.3889C51.3675 15.6827 51.1702 15.08 50.7969 14.664C50.4235 14.2373 49.9009 14.024 49.2289 14.024ZM58.3544 13.016C60.221 13.016 61.1544 14.0453 61.1544 16.104V20.44C61.1544 20.6427 61.0957 20.8027 60.9784 20.92C60.8717 21.0267 60.717 21.08 60.5144 21.08C60.3117 21.08 60.1517 21.0267 60.0344 20.92C59.917 20.8027 59.8584 20.6427 59.8584 20.44V16.184C59.8584 15.4587 59.7144 14.9307 59.4264 14.6C59.149 14.2693 58.701 14.104 58.0824 14.104C57.3677 14.104 56.797 14.3227 56.3704 14.76C55.9437 15.1973 55.7304 15.7893 55.7304 16.536V20.44C55.7304 20.6427 55.6717 20.8027 55.5544 20.92C55.4477 21.0267 55.293 21.08 55.0904 21.08C54.8877 21.08 54.7277 21.0267 54.6104 20.92C54.493 20.8027 54.4344 20.6427 54.4344 20.44V13.688C54.4344 13.496 54.493 13.3413 54.6104 13.224C54.7277 13.1067 54.8877 13.048 55.0904 13.048C55.2824 13.048 55.4317 13.1067 55.5384 13.224C55.6557 13.3413 55.7144 13.4907 55.7144 13.672V14.488C55.9704 14.008 56.3277 13.6453 56.7864 13.4C57.245 13.144 57.7677 13.016 58.3544 13.016ZM67.1281 20.056C67.5015 20.088 67.6881 20.2587 67.6881 20.568C67.6881 20.7493 67.6188 20.888 67.4801 20.984C67.3521 21.0693 67.1548 21.1013 66.8881 21.08L66.4561 21.048C65.6028 20.984 64.9735 20.728 64.5681 20.28C64.1628 19.832 63.9601 19.1547 63.9601 18.248V14.232H62.8881C62.7068 14.232 62.5628 14.1893 62.4561 14.104C62.3601 14.008 62.3121 13.8853 62.3121 13.736C62.3121 13.576 62.3601 13.448 62.4561 13.352C62.5628 13.256 62.7068 13.208 62.8881 13.208H63.9601V11.4C63.9601 11.1973 64.0188 11.0427 64.1361 10.936C64.2535 10.8187 64.4135 10.76 64.6161 10.76C64.8081 10.76 64.9628 10.8187 65.0801 10.936C65.1975 11.0427 65.2561 11.1973 65.2561 11.4V13.208H67.0321C67.2028 13.208 67.3361 13.256 67.4321 13.352C67.5388 13.448 67.5921 13.576 67.5921 13.736C67.5921 13.8853 67.5388 14.008 67.4321 14.104C67.3361 14.1893 67.2028 14.232 67.0321 14.232H65.2561V18.312C65.2561 18.8987 65.3735 19.3253 65.6081 19.592C65.8535 19.848 66.2161 19.992 66.6961 20.024L67.1281 20.056Z" fill="#332701"/>
<rect x="10.5" y="113.5" width="65" height="31" rx="15.5" stroke="black"/>
<path d="M20.064 134C19.8613 134 19.696 133.941 19.568 133.824C19.4507 133.707 19.392 133.552 19.392 133.36V123.36C19.392 123.168 19.4507 123.013 19.568 122.896C19.696 122.779 19.8613 122.72 20.064 122.72H23.184C24.9867 122.72 26.3787 123.211 27.36 124.192C28.352 125.163 28.848 126.549 28.848 128.352C28.848 130.155 28.352 131.547 27.36 132.528C26.368 133.509 24.976 134 23.184 134H20.064ZM23.104 132.88C26.0267 132.88 27.488 131.371 27.488 128.352C27.488 125.344 26.0267 123.84 23.104 123.84H20.704V132.88H23.104ZM31.6841 134.08C31.4921 134.08 31.3321 134.027 31.2041 133.92C31.0868 133.803 31.0281 133.643 31.0281 133.44V126.688C31.0281 126.485 31.0868 126.331 31.2041 126.224C31.3321 126.107 31.4921 126.048 31.6841 126.048C31.8761 126.048 32.0308 126.107 32.1481 126.224C32.2655 126.331 32.3241 126.485 32.3241 126.688V133.44C32.3241 133.653 32.2655 133.813 32.1481 133.92C32.0308 134.027 31.8761 134.08 31.6841 134.08ZM31.6841 124.368C31.4281 124.368 31.2201 124.293 31.0601 124.144C30.9001 123.995 30.8201 123.797 30.8201 123.552C30.8201 123.317 30.9001 123.125 31.0601 122.976C31.2201 122.827 31.4281 122.752 31.6841 122.752C31.9401 122.752 32.1481 122.827 32.3081 122.976C32.4681 123.125 32.5481 123.317 32.5481 123.552C32.5481 123.797 32.4681 123.995 32.3081 124.144C32.1481 124.293 31.9401 124.368 31.6841 124.368ZM40.3629 126.448C40.4802 126.192 40.6669 126.064 40.9229 126.064C41.0829 126.064 41.2269 126.117 41.3549 126.224C41.4829 126.331 41.5469 126.464 41.5469 126.624C41.5469 126.72 41.5255 126.805 41.4829 126.88L38.3629 133.6C38.2989 133.739 38.2029 133.851 38.0749 133.936C37.9469 134.011 37.8082 134.048 37.6589 134.048C37.5202 134.048 37.3869 134.011 37.2589 133.936C37.1309 133.851 37.0295 133.739 36.9549 133.6L33.8509 126.88C33.8082 126.805 33.7869 126.725 33.7869 126.64C33.7869 126.48 33.8562 126.341 33.9949 126.224C34.1442 126.107 34.3042 126.048 34.4749 126.048C34.5815 126.048 34.6829 126.08 34.7789 126.144C34.8855 126.208 34.9655 126.299 35.0189 126.416L37.6909 132.416L40.3629 126.448ZM43.6216 134.08C43.4296 134.08 43.2696 134.027 43.1416 133.92C43.0243 133.803 42.9656 133.643 42.9656 133.44V126.688C42.9656 126.485 43.0243 126.331 43.1416 126.224C43.2696 126.107 43.4296 126.048 43.6216 126.048C43.8136 126.048 43.9683 126.107 44.0856 126.224C44.203 126.331 44.2616 126.485 44.2616 126.688V133.44C44.2616 133.653 44.203 133.813 44.0856 133.92C43.9683 134.027 43.8136 134.08 43.6216 134.08ZM43.6216 124.368C43.3656 124.368 43.1576 124.293 42.9976 124.144C42.8376 123.995 42.7576 123.797 42.7576 123.552C42.7576 123.317 42.8376 123.125 42.9976 122.976C43.1576 122.827 43.3656 122.752 43.6216 122.752C43.8776 122.752 44.0856 122.827 44.2456 122.976C44.4056 123.125 44.4856 123.317 44.4856 123.552C44.4856 123.797 44.4056 123.995 44.2456 124.144C44.0856 124.293 43.8776 124.368 43.6216 124.368ZM49.3084 134.112C48.8177 134.112 48.3484 134.053 47.9004 133.936C47.463 133.819 47.0737 133.653 46.7324 133.44C46.5404 133.312 46.4017 133.195 46.3164 133.088C46.2417 132.971 46.2044 132.832 46.2044 132.672C46.2044 132.533 46.2417 132.421 46.3164 132.336C46.4017 132.24 46.5084 132.192 46.6364 132.192C46.7644 132.192 46.951 132.272 47.1964 132.432C47.5164 132.624 47.831 132.779 48.1404 132.896C48.4604 133.003 48.855 133.056 49.3244 133.056C49.9004 133.056 50.3484 132.955 50.6684 132.752C50.9884 132.549 51.1484 132.256 51.1484 131.872C51.1484 131.637 51.0897 131.451 50.9724 131.312C50.855 131.163 50.6524 131.035 50.3644 130.928C50.0764 130.811 49.655 130.693 49.1004 130.576C48.1617 130.373 47.4897 130.101 47.0844 129.76C46.679 129.419 46.4764 128.955 46.4764 128.368C46.4764 127.909 46.6044 127.504 46.8604 127.152C47.1164 126.8 47.4684 126.523 47.9164 126.32C48.375 126.117 48.8924 126.016 49.4684 126.016C49.8844 126.016 50.2844 126.075 50.6684 126.192C51.063 126.299 51.4097 126.453 51.7084 126.656C52.071 126.912 52.2524 127.179 52.2524 127.456C52.2524 127.595 52.2097 127.712 52.1244 127.808C52.039 127.904 51.9377 127.952 51.8204 127.952C51.6924 127.952 51.5004 127.861 51.2444 127.68C50.9457 127.488 50.663 127.339 50.3964 127.232C50.1297 127.125 49.799 127.072 49.4044 127.072C48.903 127.072 48.4977 127.184 48.1884 127.408C47.8897 127.632 47.7404 127.931 47.7404 128.304C47.7404 128.539 47.7937 128.731 47.9004 128.88C48.0177 129.019 48.2044 129.147 48.4604 129.264C48.727 129.371 49.1057 129.477 49.5964 129.584C50.3217 129.744 50.8817 129.92 51.2764 130.112C51.6817 130.304 51.9697 130.539 52.1404 130.816C52.311 131.093 52.3964 131.445 52.3964 131.872C52.3964 132.544 52.1137 133.088 51.5484 133.504C50.983 133.909 50.2364 134.112 49.3084 134.112ZM57.6039 134.112C56.8679 134.112 56.2172 133.947 55.6519 133.616C55.0972 133.285 54.6652 132.816 54.3559 132.208C54.0572 131.589 53.9079 130.875 53.9079 130.064C53.9079 129.253 54.0572 128.544 54.3559 127.936C54.6652 127.317 55.0972 126.843 55.6519 126.512C56.2172 126.181 56.8679 126.016 57.6039 126.016C58.3399 126.016 58.9905 126.181 59.5559 126.512C60.1212 126.843 60.5532 127.317 60.8519 127.936C61.1612 128.544 61.3159 129.253 61.3159 130.064C61.3159 130.875 61.1612 131.589 60.8519 132.208C60.5532 132.816 60.1212 133.285 59.5559 133.616C58.9905 133.947 58.3399 134.112 57.6039 134.112ZM57.6039 133.04C58.3719 133.04 58.9585 132.789 59.3639 132.288C59.7799 131.776 59.9879 131.035 59.9879 130.064C59.9879 129.115 59.7799 128.384 59.3639 127.872C58.9479 127.349 58.3612 127.088 57.6039 127.088C56.8465 127.088 56.2599 127.349 55.8439 127.872C55.4279 128.384 55.2199 129.115 55.2199 130.064C55.2199 131.024 55.4225 131.76 55.8279 132.272C56.2439 132.784 56.8359 133.04 57.6039 133.04ZM67.1029 126.048C67.5509 126.016 67.7749 126.197 67.7749 126.592C67.7749 126.763 67.7269 126.901 67.6309 127.008C67.5349 127.104 67.3695 127.163 67.1349 127.184L66.6549 127.232C65.9402 127.296 65.4069 127.552 65.0549 128C64.7135 128.437 64.5429 128.955 64.5429 129.552V133.44C64.5429 133.653 64.4842 133.813 64.3669 133.92C64.2495 134.027 64.0949 134.08 63.9029 134.08C63.7109 134.08 63.5509 134.027 63.4229 133.92C63.3055 133.803 63.2469 133.643 63.2469 133.44V126.688C63.2469 126.485 63.3109 126.331 63.4389 126.224C63.5669 126.107 63.7215 126.048 63.9029 126.048C64.0735 126.048 64.2175 126.107 64.3349 126.224C64.4522 126.331 64.5109 126.48 64.5109 126.672V127.568C64.7349 127.099 65.0495 126.741 65.4549 126.496C65.8709 126.251 66.3455 126.107 66.8789 126.064L67.1029 126.048Z" fill="#332701"/>
<rect x="99.5" y="55.5" width="78" height="31" rx="15.5" stroke="black"/>
<path d="M116.984 78.08C117.059 78.1973 117.096 78.32 117.096 78.448C117.096 78.5973 117.037 78.72 116.92 78.816C116.803 78.912 116.664 78.96 116.504 78.96C116.227 78.96 116.003 78.8213 115.832 78.544L114.904 77.024C114.52 76.4267 113.923 76.128 113.112 76.128C112.067 76.128 111.155 75.8933 110.376 75.424C109.608 74.9547 109.016 74.288 108.6 73.424C108.184 72.56 107.976 71.5413 107.976 70.368C107.976 69.184 108.179 68.16 108.584 67.296C109 66.4213 109.592 65.7547 110.36 65.296C111.139 64.8267 112.056 64.592 113.112 64.592C114.157 64.592 115.064 64.8267 115.832 65.296C116.611 65.7547 117.208 66.4213 117.624 67.296C118.04 68.16 118.248 69.1787 118.248 70.352C118.248 71.7173 117.971 72.8747 117.416 73.824C116.872 74.7627 116.093 75.4187 115.08 75.792C115.315 75.8667 115.523 75.9893 115.704 76.16C115.885 76.3413 116.072 76.5867 116.264 76.896L116.984 78.08ZM109.32 70.352C109.32 71.8347 109.651 72.9813 110.312 73.792C110.984 74.6027 111.917 75.008 113.112 75.008C114.307 75.008 115.235 74.608 115.896 73.808C116.568 72.9973 116.904 71.8453 116.904 70.352C116.904 68.8587 116.573 67.712 115.912 66.912C115.251 66.112 114.317 65.712 113.112 65.712C111.917 65.712 110.984 66.1173 110.312 66.928C109.651 67.728 109.32 68.8693 109.32 70.352ZM126.339 68.048C126.541 68.048 126.696 68.1067 126.803 68.224C126.92 68.3413 126.979 68.496 126.979 68.688V75.456C126.979 75.6373 126.92 75.7867 126.803 75.904C126.696 76.0213 126.541 76.08 126.339 76.08C126.147 76.08 125.992 76.0267 125.875 75.92C125.768 75.8027 125.715 75.6533 125.715 75.472V74.672C125.469 75.1413 125.123 75.4987 124.675 75.744C124.237 75.9893 123.741 76.112 123.187 76.112C122.259 76.112 121.56 75.856 121.091 75.344C120.621 74.8213 120.387 74.0533 120.387 73.04V68.688C120.387 68.496 120.445 68.3413 120.563 68.224C120.68 68.1067 120.84 68.048 121.043 68.048C121.245 68.048 121.4 68.1067 121.507 68.224C121.624 68.3413 121.683 68.496 121.683 68.688V73.008C121.683 73.7013 121.821 74.2133 122.099 74.544C122.376 74.864 122.813 75.024 123.411 75.024C124.093 75.024 124.643 74.8053 125.059 74.368C125.475 73.92 125.683 73.3333 125.683 72.608V68.688C125.683 68.496 125.741 68.3413 125.859 68.224C125.976 68.1067 126.136 68.048 126.339 68.048ZM132.62 76.112C131.884 76.112 131.233 75.9467 130.668 75.616C130.113 75.2853 129.681 74.816 129.372 74.208C129.073 73.5893 128.924 72.8747 128.924 72.064C128.924 71.2533 129.073 70.544 129.372 69.936C129.681 69.3173 130.113 68.8427 130.668 68.512C131.233 68.1813 131.884 68.016 132.62 68.016C133.356 68.016 134.006 68.1813 134.572 68.512C135.137 68.8427 135.569 69.3173 135.868 69.936C136.177 70.544 136.332 71.2533 136.332 72.064C136.332 72.8747 136.177 73.5893 135.868 74.208C135.569 74.816 135.137 75.2853 134.572 75.616C134.006 75.9467 133.356 76.112 132.62 76.112ZM132.62 75.04C133.388 75.04 133.974 74.7893 134.38 74.288C134.796 73.776 135.004 73.0347 135.004 72.064C135.004 71.1147 134.796 70.384 134.38 69.872C133.964 69.3493 133.377 69.088 132.62 69.088C131.862 69.088 131.276 69.3493 130.86 69.872C130.444 70.384 130.236 71.1147 130.236 72.064C130.236 73.024 130.438 73.76 130.844 74.272C131.26 74.784 131.852 75.04 132.62 75.04ZM141.847 75.056C142.22 75.088 142.407 75.2587 142.407 75.568C142.407 75.7493 142.338 75.888 142.199 75.984C142.071 76.0693 141.874 76.1013 141.607 76.08L141.175 76.048C140.322 75.984 139.692 75.728 139.287 75.28C138.882 74.832 138.679 74.1547 138.679 73.248V69.232H137.607C137.426 69.232 137.282 69.1893 137.175 69.104C137.079 69.008 137.031 68.8853 137.031 68.736C137.031 68.576 137.079 68.448 137.175 68.352C137.282 68.256 137.426 68.208 137.607 68.208H138.679V66.4C138.679 66.1973 138.738 66.0427 138.855 65.936C138.972 65.8187 139.132 65.76 139.335 65.76C139.527 65.76 139.682 65.8187 139.799 65.936C139.916 66.0427 139.975 66.1973 139.975 66.4V68.208H141.751C141.922 68.208 142.055 68.256 142.151 68.352C142.258 68.448 142.311 68.576 142.311 68.736C142.311 68.8853 142.258 69.008 142.151 69.104C142.055 69.1893 141.922 69.232 141.751 69.232H139.975V73.312C139.975 73.8987 140.092 74.3253 140.327 74.592C140.572 74.848 140.935 74.992 141.415 75.024L141.847 75.056ZM144.34 76.08C144.148 76.08 143.988 76.0267 143.86 75.92C143.743 75.8027 143.684 75.6427 143.684 75.44V68.688C143.684 68.4853 143.743 68.3307 143.86 68.224C143.988 68.1067 144.148 68.048 144.34 68.048C144.532 68.048 144.687 68.1067 144.804 68.224C144.922 68.3307 144.98 68.4853 144.98 68.688V75.44C144.98 75.6533 144.922 75.8133 144.804 75.92C144.687 76.0267 144.532 76.08 144.34 76.08ZM144.34 66.368C144.084 66.368 143.876 66.2933 143.716 66.144C143.556 65.9947 143.476 65.7973 143.476 65.552C143.476 65.3173 143.556 65.1253 143.716 64.976C143.876 64.8267 144.084 64.752 144.34 64.752C144.596 64.752 144.804 64.8267 144.964 64.976C145.124 65.1253 145.204 65.3173 145.204 65.552C145.204 65.7973 145.124 65.9947 144.964 66.144C144.804 66.2933 144.596 66.368 144.34 66.368ZM153.435 74.192C153.552 74.192 153.654 74.24 153.739 74.336C153.824 74.432 153.867 74.5547 153.867 74.704C153.867 74.9707 153.68 75.216 153.307 75.44C152.923 75.664 152.518 75.8347 152.091 75.952C151.664 76.0587 151.248 76.112 150.843 76.112C149.638 76.112 148.683 75.7547 147.979 75.04C147.286 74.3253 146.939 73.3387 146.939 72.08C146.939 71.28 147.094 70.576 147.403 69.968C147.712 69.3493 148.144 68.8693 148.699 68.528C149.264 68.1867 149.904 68.016 150.619 68.016C151.632 68.016 152.438 68.3467 153.035 69.008C153.632 69.6693 153.931 70.5653 153.931 71.696C153.931 71.9093 153.888 72.064 153.803 72.16C153.718 72.256 153.579 72.304 153.387 72.304H148.235C148.331 74.1387 149.2 75.056 150.843 75.056C151.259 75.056 151.616 75.0027 151.915 74.896C152.214 74.7787 152.534 74.624 152.875 74.432C153.152 74.272 153.339 74.192 153.435 74.192ZM150.635 69.024C149.952 69.024 149.403 69.2373 148.987 69.664C148.582 70.0907 148.342 70.6933 148.267 71.472H152.795C152.774 70.6827 152.576 70.08 152.203 69.664C151.83 69.2373 151.307 69.024 150.635 69.024ZM159.761 68.016C161.627 68.016 162.561 69.0453 162.561 71.104V75.44C162.561 75.6427 162.502 75.8027 162.385 75.92C162.278 76.0267 162.123 76.08 161.921 76.08C161.718 76.08 161.558 76.0267 161.441 75.92C161.323 75.8027 161.265 75.6427 161.265 75.44V71.184C161.265 70.4587 161.121 69.9307 160.833 69.6C160.555 69.2693 160.107 69.104 159.489 69.104C158.774 69.104 158.203 69.3227 157.777 69.76C157.35 70.1973 157.137 70.7893 157.137 71.536V75.44C157.137 75.6427 157.078 75.8027 156.961 75.92C156.854 76.0267 156.699 76.08 156.497 76.08C156.294 76.08 156.134 76.0267 156.017 75.92C155.899 75.8027 155.841 75.6427 155.841 75.44V68.688C155.841 68.496 155.899 68.3413 156.017 68.224C156.134 68.1067 156.294 68.048 156.497 68.048C156.689 68.048 156.838 68.1067 156.945 68.224C157.062 68.3413 157.121 68.4907 157.121 68.672V69.488C157.377 69.008 157.734 68.6453 158.193 68.4C158.651 68.144 159.174 68.016 159.761 68.016ZM168.534 75.056C168.908 75.088 169.094 75.2587 169.094 75.568C169.094 75.7493 169.025 75.888 168.886 75.984C168.758 76.0693 168.561 76.1013 168.294 76.08L167.862 76.048C167.009 75.984 166.38 75.728 165.974 75.28C165.569 74.832 165.366 74.1547 165.366 73.248V69.232H164.294C164.113 69.232 163.969 69.1893 163.862 69.104C163.766 69.008 163.718 68.8853 163.718 68.736C163.718 68.576 163.766 68.448 163.862 68.352C163.969 68.256 164.113 68.208 164.294 68.208H165.366V66.4C165.366 66.1973 165.425 66.0427 165.542 65.936C165.66 65.8187 165.82 65.76 166.022 65.76C166.214 65.76 166.369 65.8187 166.486 65.936C166.604 66.0427 166.662 66.1973 166.662 66.4V68.208H168.438C168.609 68.208 168.742 68.256 168.838 68.352C168.945 68.448 168.998 68.576 168.998 68.736C168.998 68.8853 168.945 69.008 168.838 69.104C168.742 69.1893 168.609 69.232 168.438 69.232H166.662V73.312C166.662 73.8987 166.78 74.3253 167.014 74.592C167.26 74.848 167.622 74.992 168.102 75.024L168.534 75.056Z" fill="#332701"/>
</svg>
