<svg width="208" height="133" viewBox="0 0 208 133" fill="none" xmlns="http://www.w3.org/2000/svg">
<path d="M103.18 76C102.88 76 102.623 75.9089 102.408 75.7266C102.2 75.5443 102.096 75.2871 102.096 74.9551L102.086 64.2715L100.045 65.5801C99.9212 65.6647 99.7845 65.707 99.6348 65.707C99.4199 65.707 99.2344 65.6257 99.0781 65.4629C98.9219 65.3001 98.8438 65.1146 98.8438 64.9062C98.8438 64.6458 98.9707 64.4342 99.2246 64.2715L102.633 62.1719C102.783 62.0807 102.981 62.0286 103.229 62.0156C103.515 62.0156 103.759 62.11 103.961 62.2988C104.169 62.4876 104.273 62.7513 104.273 63.0898V74.9551C104.273 75.2871 104.163 75.5443 103.941 75.7266C103.727 75.9089 103.473 76 103.18 76ZM113.111 74.4473C113.508 74.4473 113.86 74.3724 114.166 74.2227C114.479 74.0664 114.732 73.8451 114.928 73.5586C115.13 73.2721 115.296 72.9596 115.426 72.6211C115.562 72.2826 115.66 71.8919 115.719 71.4492C115.784 71.0065 115.829 70.5964 115.855 70.2188C115.882 69.8346 115.895 69.4115 115.895 68.9492C115.895 68.5521 115.885 68.1875 115.865 67.8555C115.852 67.5169 115.82 67.1556 115.768 66.7715C115.722 66.3874 115.657 66.0456 115.572 65.7461C115.494 65.4401 115.383 65.1439 115.24 64.8574C115.097 64.5645 114.931 64.3236 114.742 64.1348C114.553 63.9395 114.319 63.7832 114.039 63.666C113.766 63.5488 113.456 63.4902 113.111 63.4902C112.773 63.4902 112.467 63.5488 112.193 63.666C111.92 63.7832 111.686 63.9362 111.49 64.125C111.301 64.3138 111.135 64.5547 110.992 64.8477C110.855 65.1341 110.745 65.4303 110.66 65.7363C110.582 66.0358 110.517 66.3776 110.465 66.7617C110.419 67.1458 110.387 67.5072 110.367 67.8457C110.354 68.1842 110.348 68.5521 110.348 68.9492C110.348 69.3398 110.354 69.7012 110.367 70.0332C110.387 70.3587 110.419 70.7168 110.465 71.1074C110.517 71.4915 110.582 71.8366 110.66 72.1426C110.738 72.4486 110.849 72.7513 110.992 73.0508C111.135 73.3503 111.301 73.5977 111.49 73.793C111.679 73.9883 111.91 74.1478 112.184 74.2715C112.464 74.3887 112.773 74.4473 113.111 74.4473ZM113.111 76.2148C112.473 76.2148 111.897 76.1237 111.383 75.9414C110.868 75.7591 110.429 75.4987 110.064 75.1602C109.706 74.8151 109.397 74.4212 109.137 73.9785C108.876 73.5358 108.671 73.0378 108.521 72.4844C108.372 71.9245 108.261 71.3581 108.189 70.7852C108.124 70.2122 108.092 69.6003 108.092 68.9492C108.092 68.1484 108.141 67.4095 108.238 66.7324C108.336 66.0488 108.502 65.3945 108.736 64.7695C108.977 64.138 109.283 63.6042 109.654 63.168C110.032 62.7253 110.514 62.3737 111.1 62.1133C111.686 61.8529 112.356 61.7227 113.111 61.7227C113.867 61.7227 114.537 61.8529 115.123 62.1133C115.709 62.3737 116.188 62.7253 116.559 63.168C116.936 63.6042 117.242 64.138 117.477 64.7695C117.717 65.401 117.887 66.0553 117.984 66.7324C118.082 67.4095 118.131 68.1484 118.131 68.9492C118.131 69.7305 118.082 70.4596 117.984 71.1367C117.893 71.8138 117.727 72.4714 117.486 73.1094C117.252 73.7409 116.949 74.2812 116.578 74.7305C116.207 75.1797 115.725 75.541 115.133 75.8145C114.547 76.0814 113.873 76.2148 113.111 76.2148Z" fill="#332701"/>
<path d="M103.18 94C102.88 94 102.623 93.9089 102.408 93.7266C102.2 93.5443 102.096 93.2871 102.096 92.9551L102.086 82.2715L100.045 83.5801C99.9212 83.6647 99.7845 83.707 99.6348 83.707C99.4199 83.707 99.2344 83.6257 99.0781 83.4629C98.9219 83.3001 98.8438 83.1146 98.8438 82.9062C98.8438 82.6458 98.9707 82.4342 99.2246 82.2715L102.633 80.1719C102.783 80.0807 102.981 80.0286 103.229 80.0156C103.515 80.0156 103.759 80.11 103.961 80.2988C104.169 80.4876 104.273 80.7513 104.273 81.0898V92.9551C104.273 93.2871 104.163 93.5443 103.941 93.7266C103.727 93.9089 103.473 94 103.18 94ZM113.111 92.4473C113.508 92.4473 113.86 92.3724 114.166 92.2227C114.479 92.0664 114.732 91.8451 114.928 91.5586C115.13 91.2721 115.296 90.9596 115.426 90.6211C115.562 90.2826 115.66 89.8919 115.719 89.4492C115.784 89.0065 115.829 88.5964 115.855 88.2188C115.882 87.8346 115.895 87.4115 115.895 86.9492C115.895 86.5521 115.885 86.1875 115.865 85.8555C115.852 85.5169 115.82 85.1556 115.768 84.7715C115.722 84.3874 115.657 84.0456 115.572 83.7461C115.494 83.4401 115.383 83.1439 115.24 82.8574C115.097 82.5645 114.931 82.3236 114.742 82.1348C114.553 81.9395 114.319 81.7832 114.039 81.666C113.766 81.5488 113.456 81.4902 113.111 81.4902C112.773 81.4902 112.467 81.5488 112.193 81.666C111.92 81.7832 111.686 81.9362 111.49 82.125C111.301 82.3138 111.135 82.5547 110.992 82.8477C110.855 83.1341 110.745 83.4303 110.66 83.7363C110.582 84.0358 110.517 84.3776 110.465 84.7617C110.419 85.1458 110.387 85.5072 110.367 85.8457C110.354 86.1842 110.348 86.5521 110.348 86.9492C110.348 87.3398 110.354 87.7012 110.367 88.0332C110.387 88.3587 110.419 88.7168 110.465 89.1074C110.517 89.4915 110.582 89.8366 110.66 90.1426C110.738 90.4486 110.849 90.7513 110.992 91.0508C111.135 91.3503 111.301 91.5977 111.49 91.793C111.679 91.9883 111.91 92.1478 112.184 92.2715C112.464 92.3887 112.773 92.4473 113.111 92.4473ZM113.111 94.2148C112.473 94.2148 111.897 94.1237 111.383 93.9414C110.868 93.7591 110.429 93.4987 110.064 93.1602C109.706 92.8151 109.397 92.4212 109.137 91.9785C108.876 91.5358 108.671 91.0378 108.521 90.4844C108.372 89.9245 108.261 89.3581 108.189 88.7852C108.124 88.2122 108.092 87.6003 108.092 86.9492C108.092 86.1484 108.141 85.4095 108.238 84.7324C108.336 84.0488 108.502 83.3945 108.736 82.7695C108.977 82.138 109.283 81.6042 109.654 81.168C110.032 80.7253 110.514 80.3737 111.1 80.1133C111.686 79.8529 112.356 79.7227 113.111 79.7227C113.867 79.7227 114.537 79.8529 115.123 80.1133C115.709 80.3737 116.188 80.7253 116.559 81.168C116.936 81.6042 117.242 82.138 117.477 82.7695C117.717 83.401 117.887 84.0553 117.984 84.7324C118.082 85.4095 118.131 86.1484 118.131 86.9492C118.131 87.7305 118.082 88.4596 117.984 89.1367C117.893 89.8138 117.727 90.4714 117.486 91.1094C117.252 91.7409 116.949 92.2812 116.578 92.7305C116.207 93.1797 115.725 93.541 115.133 93.8145C114.547 94.0814 113.873 94.2148 113.111 94.2148Z" fill="#332701"/>
<path d="M90.1777 89.5957C89.9303 89.5957 89.7253 89.5241 89.5625 89.3809C89.4062 89.2376 89.3281 89.0553 89.3281 88.834C89.3281 88.6061 89.4062 88.4206 89.5625 88.2773C89.7253 88.1276 89.9303 88.0527 90.1777 88.0527H94.2793C94.5267 88.0527 94.7285 88.1276 94.8848 88.2773C95.041 88.4206 95.1191 88.6061 95.1191 88.834C95.1191 89.0553 95.0378 89.2376 94.875 89.3809C94.7188 89.5241 94.5202 89.5957 94.2793 89.5957H90.1777Z" fill="#332701"/>
<path d="M113.111 122.447C113.508 122.447 113.86 122.372 114.166 122.223C114.479 122.066 114.732 121.845 114.928 121.559C115.13 121.272 115.296 120.96 115.426 120.621C115.562 120.283 115.66 119.892 115.719 119.449C115.784 119.007 115.829 118.596 115.855 118.219C115.882 117.835 115.895 117.411 115.895 116.949C115.895 116.552 115.885 116.188 115.865 115.855C115.852 115.517 115.82 115.156 115.768 114.771C115.722 114.387 115.657 114.046 115.572 113.746C115.494 113.44 115.383 113.144 115.24 112.857C115.097 112.564 114.931 112.324 114.742 112.135C114.553 111.939 114.319 111.783 114.039 111.666C113.766 111.549 113.456 111.49 113.111 111.49C112.773 111.49 112.467 111.549 112.193 111.666C111.92 111.783 111.686 111.936 111.49 112.125C111.301 112.314 111.135 112.555 110.992 112.848C110.855 113.134 110.745 113.43 110.66 113.736C110.582 114.036 110.517 114.378 110.465 114.762C110.419 115.146 110.387 115.507 110.367 115.846C110.354 116.184 110.348 116.552 110.348 116.949C110.348 117.34 110.354 117.701 110.367 118.033C110.387 118.359 110.419 118.717 110.465 119.107C110.517 119.492 110.582 119.837 110.66 120.143C110.738 120.449 110.849 120.751 110.992 121.051C111.135 121.35 111.301 121.598 111.49 121.793C111.679 121.988 111.91 122.148 112.184 122.271C112.464 122.389 112.773 122.447 113.111 122.447ZM113.111 124.215C112.473 124.215 111.897 124.124 111.383 123.941C110.868 123.759 110.429 123.499 110.064 123.16C109.706 122.815 109.397 122.421 109.137 121.979C108.876 121.536 108.671 121.038 108.521 120.484C108.372 119.924 108.261 119.358 108.189 118.785C108.124 118.212 108.092 117.6 108.092 116.949C108.092 116.148 108.141 115.41 108.238 114.732C108.336 114.049 108.502 113.395 108.736 112.77C108.977 112.138 109.283 111.604 109.654 111.168C110.032 110.725 110.514 110.374 111.1 110.113C111.686 109.853 112.356 109.723 113.111 109.723C113.867 109.723 114.537 109.853 115.123 110.113C115.709 110.374 116.188 110.725 116.559 111.168C116.936 111.604 117.242 112.138 117.477 112.77C117.717 113.401 117.887 114.055 117.984 114.732C118.082 115.41 118.131 116.148 118.131 116.949C118.131 117.73 118.082 118.46 117.984 119.137C117.893 119.814 117.727 120.471 117.486 121.109C117.252 121.741 116.949 122.281 116.578 122.73C116.207 123.18 115.725 123.541 115.133 123.814C114.547 124.081 113.873 124.215 113.111 124.215Z" fill="#332701"/>
<path d="M113.336 49.2148C112.451 49.2148 111.673 49.0846 111.002 48.8242C110.338 48.5638 109.716 48.1862 109.137 47.6914C109 47.5742 108.932 47.418 108.932 47.2227C108.932 46.9818 109.023 46.7539 109.205 46.5391C109.394 46.3177 109.599 46.207 109.82 46.207C109.957 46.207 110.081 46.2526 110.191 46.3438C111.116 47.0794 112.138 47.4473 113.258 47.4473C114.176 47.4473 114.869 47.1966 115.338 46.6953C115.813 46.1875 116.051 45.4811 116.051 44.5762C116.051 43.7559 115.816 43.1016 115.348 42.6133C114.885 42.1185 114.273 41.8711 113.512 41.8711C113.01 41.8711 112.522 41.985 112.047 42.2129C111.572 42.4342 111.174 42.7077 110.855 43.0332C110.823 43.0658 110.777 43.0885 110.719 43.1016C110.66 43.1146 110.592 43.1211 110.514 43.1211C110.214 43.1211 109.905 43.043 109.586 42.8867C109.273 42.7305 109.117 42.5384 109.117 42.3105V36.0605C109.117 35.403 109.475 35.0742 110.191 35.0742H116.578C116.826 35.0742 117.018 35.1589 117.154 35.3281C117.291 35.4909 117.359 35.6829 117.359 35.9043C117.359 36.1257 117.291 36.3177 117.154 36.4805C117.018 36.6432 116.826 36.7246 116.578 36.7246H110.865L110.855 41.168L110.963 41.0703C111.035 40.9987 111.152 40.9141 111.314 40.8164C111.477 40.7122 111.666 40.6113 111.881 40.5137C112.102 40.416 112.385 40.3346 112.73 40.2695C113.076 40.1979 113.44 40.1621 113.824 40.1621C115.12 40.1621 116.165 40.5788 116.959 41.4121C117.76 42.2454 118.16 43.3229 118.16 44.6445C118.16 46.0182 117.704 47.125 116.793 47.9648C115.888 48.7982 114.736 49.2148 113.336 49.2148Z" fill="#332701"/>
<path d="M80.584 65.8828C80.584 66.6315 80.4017 67.3509 80.0371 68.041C79.6725 68.7246 79.0833 69.4375 78.2695 70.1797L73.9043 74.3496H79.6367C79.8841 74.3496 80.0794 74.431 80.2227 74.5938C80.3659 74.75 80.4375 74.9421 80.4375 75.1699C80.4375 75.3913 80.3659 75.5866 80.2227 75.7559C80.0859 75.9186 79.8906 76 79.6367 76H72.8496C72.4525 76 72.1335 75.8958 71.8926 75.6875C71.6517 75.4727 71.5312 75.209 71.5312 74.8965C71.5312 74.8118 71.541 74.7272 71.5605 74.6426C71.5801 74.5514 71.6094 74.4635 71.6484 74.3789C71.6875 74.2878 71.7363 74.1999 71.7949 74.1152C71.86 74.0241 71.9349 73.9362 72.0195 73.8516L77.0879 68.7441C78.0514 67.7741 78.5332 66.8724 78.5332 66.0391C78.5332 65.3229 78.2923 64.7402 77.8105 64.291C77.3353 63.8418 76.7526 63.6172 76.0625 63.6172C75.7305 63.6172 75.4277 63.6367 75.1543 63.6758C74.8809 63.7148 74.6302 63.7767 74.4023 63.8613C74.181 63.946 74.002 64.0208 73.8652 64.0859C73.735 64.151 73.5658 64.2487 73.3574 64.3789C73.1556 64.5026 73.0091 64.5872 72.918 64.6328C72.8268 64.6784 72.7292 64.7012 72.625 64.7012C72.4036 64.7012 72.2018 64.6068 72.0195 64.418C71.8438 64.2292 71.7559 64.0176 71.7559 63.7832C71.7559 63.5033 71.8958 63.2819 72.1758 63.1191C72.8203 62.7285 73.4486 62.4323 74.0605 62.2305C74.679 62.0221 75.4115 61.918 76.2578 61.918C76.8763 61.918 77.4557 62.0254 77.9961 62.2402C78.5365 62.4486 78.9954 62.7318 79.373 63.0898C79.7507 63.4479 80.0469 63.8711 80.2617 64.3594C80.4766 64.8411 80.584 65.349 80.584 65.8828Z" fill="#332701"/>
<path d="M86 54H125" stroke="#332701" stroke-width="2" stroke-linecap="round"/>
<path d="M96 102H120" stroke="#332701" stroke-width="2" stroke-linecap="round"/>
<path d="M86 54L86 98" stroke="#332701" stroke-width="2" stroke-linecap="round"/>
<rect x="123.5" y="54.5" width="75" height="31" rx="15.5" stroke="black"/>
<path d="M133.064 75C132.861 75 132.696 74.9413 132.568 74.824C132.451 74.7067 132.392 74.552 132.392 74.36V64.36C132.392 64.168 132.451 64.0133 132.568 63.896C132.696 63.7787 132.861 63.72 133.064 63.72H136.184C137.987 63.72 139.379 64.2107 140.36 65.192C141.352 66.1627 141.848 67.5493 141.848 69.352C141.848 71.1547 141.352 72.5467 140.36 73.528C139.368 74.5093 137.976 75 136.184 75H133.064ZM136.104 73.88C139.027 73.88 140.488 72.3707 140.488 69.352C140.488 66.344 139.027 64.84 136.104 64.84H133.704V73.88H136.104ZM144.684 75.08C144.492 75.08 144.332 75.0267 144.204 74.92C144.087 74.8027 144.028 74.6427 144.028 74.44V67.688C144.028 67.4853 144.087 67.3307 144.204 67.224C144.332 67.1067 144.492 67.048 144.684 67.048C144.876 67.048 145.031 67.1067 145.148 67.224C145.265 67.3307 145.324 67.4853 145.324 67.688V74.44C145.324 74.6533 145.265 74.8133 145.148 74.92C145.031 75.0267 144.876 75.08 144.684 75.08ZM144.684 65.368C144.428 65.368 144.22 65.2933 144.06 65.144C143.9 64.9947 143.82 64.7973 143.82 64.552C143.82 64.3173 143.9 64.1253 144.06 63.976C144.22 63.8267 144.428 63.752 144.684 63.752C144.94 63.752 145.148 63.8267 145.308 63.976C145.468 64.1253 145.548 64.3173 145.548 64.552C145.548 64.7973 145.468 64.9947 145.308 65.144C145.148 65.2933 144.94 65.368 144.684 65.368ZM153.363 67.448C153.48 67.192 153.667 67.064 153.923 67.064C154.083 67.064 154.227 67.1173 154.355 67.224C154.483 67.3307 154.547 67.464 154.547 67.624C154.547 67.72 154.526 67.8053 154.483 67.88L151.363 74.6C151.299 74.7387 151.203 74.8507 151.075 74.936C150.947 75.0107 150.808 75.048 150.659 75.048C150.52 75.048 150.387 75.0107 150.259 74.936C150.131 74.8507 150.03 74.7387 149.955 74.6L146.851 67.88C146.808 67.8053 146.787 67.7253 146.787 67.64C146.787 67.48 146.856 67.3413 146.995 67.224C147.144 67.1067 147.304 67.048 147.475 67.048C147.582 67.048 147.683 67.08 147.779 67.144C147.886 67.208 147.966 67.2987 148.019 67.416L150.691 73.416L153.363 67.448ZM156.622 75.08C156.43 75.08 156.27 75.0267 156.142 74.92C156.024 74.8027 155.966 74.6427 155.966 74.44V67.688C155.966 67.4853 156.024 67.3307 156.142 67.224C156.27 67.1067 156.43 67.048 156.622 67.048C156.814 67.048 156.968 67.1067 157.086 67.224C157.203 67.3307 157.262 67.4853 157.262 67.688V74.44C157.262 74.6533 157.203 74.8133 157.086 74.92C156.968 75.0267 156.814 75.08 156.622 75.08ZM156.622 65.368C156.366 65.368 156.158 65.2933 155.998 65.144C155.838 64.9947 155.758 64.7973 155.758 64.552C155.758 64.3173 155.838 64.1253 155.998 63.976C156.158 63.8267 156.366 63.752 156.622 63.752C156.878 63.752 157.086 63.8267 157.246 63.976C157.406 64.1253 157.486 64.3173 157.486 64.552C157.486 64.7973 157.406 64.9947 157.246 65.144C157.086 65.2933 156.878 65.368 156.622 65.368ZM165.94 63.64C166.143 63.64 166.303 63.6987 166.42 63.816C166.538 63.9333 166.596 64.0827 166.596 64.264V74.44C166.596 74.632 166.538 74.7867 166.42 74.904C166.303 75.0213 166.143 75.08 165.94 75.08C165.738 75.08 165.578 75.0213 165.46 74.904C165.354 74.7867 165.3 74.632 165.3 74.44V73.576C165.066 74.0667 164.719 74.4453 164.26 74.712C163.812 74.9787 163.284 75.112 162.676 75.112C161.994 75.112 161.391 74.9413 160.868 74.6C160.346 74.2587 159.94 73.784 159.652 73.176C159.364 72.5573 159.22 71.8427 159.22 71.032C159.22 70.232 159.364 69.528 159.652 68.92C159.94 68.312 160.346 67.8427 160.868 67.512C161.391 67.1813 161.994 67.016 162.676 67.016C163.284 67.016 163.812 67.1493 164.26 67.416C164.719 67.6827 165.066 68.0613 165.3 68.552V64.264C165.3 64.072 165.354 63.9227 165.46 63.816C165.578 63.6987 165.738 63.64 165.94 63.64ZM162.932 74.04C163.69 74.04 164.271 73.784 164.676 73.272C165.092 72.7493 165.3 72.0133 165.3 71.064C165.3 70.1147 165.092 69.384 164.676 68.872C164.271 68.36 163.69 68.104 162.932 68.104C162.175 68.104 161.583 68.36 161.156 68.872C160.74 69.384 160.532 70.104 160.532 71.032C160.532 71.9813 160.74 72.7227 161.156 73.256C161.583 73.7787 162.175 74.04 162.932 74.04ZM175.029 73.192C175.146 73.192 175.248 73.24 175.333 73.336C175.418 73.432 175.461 73.5547 175.461 73.704C175.461 73.9707 175.274 74.216 174.901 74.44C174.517 74.664 174.112 74.8347 173.685 74.952C173.258 75.0587 172.842 75.112 172.437 75.112C171.232 75.112 170.277 74.7547 169.573 74.04C168.88 73.3253 168.533 72.3387 168.533 71.08C168.533 70.28 168.688 69.576 168.997 68.968C169.306 68.3493 169.738 67.8693 170.293 67.528C170.858 67.1867 171.498 67.016 172.213 67.016C173.226 67.016 174.032 67.3467 174.629 68.008C175.226 68.6693 175.525 69.5653 175.525 70.696C175.525 70.9093 175.482 71.064 175.397 71.16C175.312 71.256 175.173 71.304 174.981 71.304H169.829C169.925 73.1387 170.794 74.056 172.437 74.056C172.853 74.056 173.21 74.0027 173.509 73.896C173.808 73.7787 174.128 73.624 174.469 73.432C174.746 73.272 174.933 73.192 175.029 73.192ZM172.229 68.024C171.546 68.024 170.997 68.2373 170.581 68.664C170.176 69.0907 169.936 69.6933 169.861 70.472H174.389C174.368 69.6827 174.17 69.08 173.797 68.664C173.424 68.2373 172.901 68.024 172.229 68.024ZM181.354 67.016C183.221 67.016 184.154 68.0453 184.154 70.104V74.44C184.154 74.6427 184.096 74.8027 183.978 74.92C183.872 75.0267 183.717 75.08 183.514 75.08C183.312 75.08 183.152 75.0267 183.034 74.92C182.917 74.8027 182.858 74.6427 182.858 74.44V70.184C182.858 69.4587 182.714 68.9307 182.426 68.6C182.149 68.2693 181.701 68.104 181.082 68.104C180.368 68.104 179.797 68.3227 179.37 68.76C178.944 69.1973 178.73 69.7893 178.73 70.536V74.44C178.73 74.6427 178.672 74.8027 178.554 74.92C178.448 75.0267 178.293 75.08 178.09 75.08C177.888 75.08 177.728 75.0267 177.61 74.92C177.493 74.8027 177.434 74.6427 177.434 74.44V67.688C177.434 67.496 177.493 67.3413 177.61 67.224C177.728 67.1067 177.888 67.048 178.09 67.048C178.282 67.048 178.432 67.1067 178.538 67.224C178.656 67.3413 178.714 67.4907 178.714 67.672V68.488C178.97 68.008 179.328 67.6453 179.786 67.4C180.245 67.144 180.768 67.016 181.354 67.016ZM190.128 74.056C190.501 74.088 190.688 74.2587 190.688 74.568C190.688 74.7493 190.619 74.888 190.48 74.984C190.352 75.0693 190.155 75.1013 189.888 75.08L189.456 75.048C188.603 74.984 187.973 74.728 187.568 74.28C187.163 73.832 186.96 73.1547 186.96 72.248V68.232H185.888C185.707 68.232 185.563 68.1893 185.456 68.104C185.36 68.008 185.312 67.8853 185.312 67.736C185.312 67.576 185.36 67.448 185.456 67.352C185.563 67.256 185.707 67.208 185.888 67.208H186.96V65.4C186.96 65.1973 187.019 65.0427 187.136 64.936C187.253 64.8187 187.413 64.76 187.616 64.76C187.808 64.76 187.963 64.8187 188.08 64.936C188.197 65.0427 188.256 65.1973 188.256 65.4V67.208H190.032C190.203 67.208 190.336 67.256 190.432 67.352C190.539 67.448 190.592 67.576 190.592 67.736C190.592 67.8853 190.539 68.008 190.432 68.104C190.336 68.1893 190.203 68.232 190.032 68.232H188.256V72.312C188.256 72.8987 188.373 73.3253 188.608 73.592C188.853 73.848 189.216 73.992 189.696 74.024L190.128 74.056Z" fill="#332701"/>
<rect x="123.5" y="101.5" width="84" height="31" rx="15.5" stroke="black"/>
<path d="M141 121.184C141.075 121.301 141.112 121.424 141.112 121.552C141.112 121.712 141.048 121.845 140.92 121.952C140.803 122.048 140.664 122.096 140.504 122.096C140.259 122.096 140.067 121.989 139.928 121.776L137.784 118.384C137.507 117.947 137.219 117.648 136.92 117.488C136.621 117.317 136.216 117.232 135.704 117.232H133.688V121.408C133.688 121.611 133.629 121.776 133.512 121.904C133.395 122.021 133.24 122.08 133.048 122.08C132.845 122.08 132.685 122.021 132.568 121.904C132.451 121.776 132.392 121.611 132.392 121.408V111.36C132.392 111.168 132.451 111.013 132.568 110.896C132.696 110.779 132.861 110.72 133.064 110.72H137.032C138.259 110.72 139.192 110.992 139.832 111.536C140.483 112.08 140.808 112.88 140.808 113.936C140.808 114.832 140.547 115.552 140.024 116.096C139.512 116.64 138.776 116.971 137.816 117.088C138.083 117.173 138.323 117.312 138.536 117.504C138.749 117.696 138.963 117.963 139.176 118.304L141 121.184ZM136.92 116.144C137.795 116.144 138.445 115.963 138.872 115.6C139.309 115.237 139.528 114.688 139.528 113.952C139.528 113.227 139.315 112.688 138.888 112.336C138.461 111.984 137.805 111.808 136.92 111.808H133.688V116.144H136.92ZM149.201 120.192C149.318 120.192 149.419 120.24 149.505 120.336C149.59 120.432 149.633 120.555 149.633 120.704C149.633 120.971 149.446 121.216 149.073 121.44C148.689 121.664 148.283 121.835 147.857 121.952C147.43 122.059 147.014 122.112 146.609 122.112C145.403 122.112 144.449 121.755 143.745 121.04C143.051 120.325 142.705 119.339 142.705 118.08C142.705 117.28 142.859 116.576 143.169 115.968C143.478 115.349 143.91 114.869 144.465 114.528C145.03 114.187 145.67 114.016 146.385 114.016C147.398 114.016 148.203 114.347 148.801 115.008C149.398 115.669 149.697 116.565 149.697 117.696C149.697 117.909 149.654 118.064 149.569 118.16C149.483 118.256 149.345 118.304 149.153 118.304H144.001C144.097 120.139 144.966 121.056 146.609 121.056C147.025 121.056 147.382 121.003 147.681 120.896C147.979 120.779 148.299 120.624 148.641 120.432C148.918 120.272 149.105 120.192 149.201 120.192ZM146.401 115.024C145.718 115.024 145.169 115.237 144.753 115.664C144.347 116.091 144.107 116.693 144.033 117.472H148.561C148.539 116.683 148.342 116.08 147.969 115.664C147.595 115.237 147.073 115.024 146.401 115.024ZM160.278 114.016C162.006 114.016 162.87 115.045 162.87 117.104V121.44C162.87 121.643 162.812 121.803 162.694 121.92C162.577 122.027 162.422 122.08 162.23 122.08C162.038 122.08 161.878 122.027 161.75 121.92C161.633 121.803 161.574 121.643 161.574 121.44V117.136C161.574 116.421 161.446 115.904 161.19 115.584C160.934 115.264 160.534 115.104 159.99 115.104C159.34 115.104 158.828 115.323 158.454 115.76C158.081 116.197 157.894 116.789 157.894 117.536V121.44C157.894 121.643 157.83 121.803 157.702 121.92C157.585 122.027 157.43 122.08 157.238 122.08C157.046 122.08 156.892 122.027 156.774 121.92C156.657 121.803 156.598 121.643 156.598 121.44V117.136C156.598 116.421 156.47 115.904 156.214 115.584C155.958 115.264 155.553 115.104 154.998 115.104C154.358 115.104 153.846 115.323 153.462 115.76C153.089 116.197 152.902 116.789 152.902 117.536V121.44C152.902 121.643 152.844 121.803 152.726 121.92C152.609 122.027 152.454 122.08 152.262 122.08C152.07 122.08 151.91 122.027 151.782 121.92C151.665 121.803 151.606 121.643 151.606 121.44V114.688C151.606 114.496 151.665 114.341 151.782 114.224C151.91 114.107 152.07 114.048 152.262 114.048C152.444 114.048 152.593 114.107 152.71 114.224C152.828 114.331 152.886 114.48 152.886 114.672V115.44C153.121 114.981 153.446 114.629 153.862 114.384C154.278 114.139 154.758 114.016 155.302 114.016C156.518 114.016 157.313 114.528 157.686 115.552C157.91 115.083 158.252 114.709 158.71 114.432C159.169 114.155 159.692 114.016 160.278 114.016ZM168.415 114.016C170.367 114.016 171.343 115.04 171.343 117.088V121.44C171.343 121.632 171.285 121.787 171.167 121.904C171.061 122.021 170.911 122.08 170.719 122.08C170.527 122.08 170.373 122.021 170.255 121.904C170.138 121.787 170.079 121.632 170.079 121.44V120.672C169.877 121.131 169.567 121.488 169.151 121.744C168.735 121.989 168.255 122.112 167.711 122.112C167.21 122.112 166.746 122.011 166.319 121.808C165.903 121.605 165.573 121.323 165.327 120.96C165.082 120.597 164.959 120.197 164.959 119.76C164.959 119.173 165.109 118.72 165.407 118.4C165.706 118.069 166.197 117.835 166.879 117.696C167.562 117.547 168.511 117.472 169.727 117.472H170.079V116.944C170.079 116.304 169.946 115.835 169.679 115.536C169.423 115.237 169.002 115.088 168.415 115.088C167.69 115.088 166.954 115.285 166.207 115.68C165.919 115.861 165.717 115.952 165.599 115.952C165.471 115.952 165.365 115.904 165.279 115.808C165.194 115.712 165.151 115.589 165.151 115.44C165.151 115.291 165.194 115.163 165.279 115.056C165.375 114.939 165.525 114.821 165.727 114.704C166.101 114.491 166.522 114.325 166.991 114.208C167.471 114.08 167.946 114.016 168.415 114.016ZM167.887 121.088C168.527 121.088 169.05 120.875 169.455 120.448C169.871 120.011 170.079 119.451 170.079 118.768V118.304H169.791C168.853 118.304 168.138 118.347 167.647 118.432C167.157 118.507 166.805 118.64 166.591 118.832C166.389 119.013 166.287 119.285 166.287 119.648C166.287 120.064 166.437 120.411 166.735 120.688C167.045 120.955 167.429 121.088 167.887 121.088ZM174.372 122.08C174.18 122.08 174.02 122.027 173.892 121.92C173.774 121.803 173.716 121.643 173.716 121.44V114.688C173.716 114.485 173.774 114.331 173.892 114.224C174.02 114.107 174.18 114.048 174.372 114.048C174.564 114.048 174.718 114.107 174.836 114.224C174.953 114.331 175.012 114.485 175.012 114.688V121.44C175.012 121.653 174.953 121.813 174.836 121.92C174.718 122.027 174.564 122.08 174.372 122.08ZM174.372 112.368C174.116 112.368 173.908 112.293 173.748 112.144C173.588 111.995 173.508 111.797 173.508 111.552C173.508 111.317 173.588 111.125 173.748 110.976C173.908 110.827 174.116 110.752 174.372 110.752C174.628 110.752 174.836 110.827 174.996 110.976C175.156 111.125 175.236 111.317 175.236 111.552C175.236 111.797 175.156 111.995 174.996 112.144C174.836 112.293 174.628 112.368 174.372 112.368ZM181.354 114.016C183.221 114.016 184.154 115.045 184.154 117.104V121.44C184.154 121.643 184.096 121.803 183.978 121.92C183.872 122.027 183.717 122.08 183.514 122.08C183.312 122.08 183.152 122.027 183.034 121.92C182.917 121.803 182.858 121.643 182.858 121.44V117.184C182.858 116.459 182.714 115.931 182.426 115.6C182.149 115.269 181.701 115.104 181.082 115.104C180.368 115.104 179.797 115.323 179.37 115.76C178.944 116.197 178.73 116.789 178.73 117.536V121.44C178.73 121.643 178.672 121.803 178.554 121.92C178.448 122.027 178.293 122.08 178.09 122.08C177.888 122.08 177.728 122.027 177.61 121.92C177.493 121.803 177.434 121.643 177.434 121.44V114.688C177.434 114.496 177.493 114.341 177.61 114.224C177.728 114.107 177.888 114.048 178.09 114.048C178.282 114.048 178.432 114.107 178.538 114.224C178.656 114.341 178.714 114.491 178.714 114.672V115.488C178.97 115.008 179.328 114.645 179.786 114.4C180.245 114.144 180.768 114.016 181.354 114.016ZM192.56 120.192C192.677 120.192 192.779 120.24 192.864 120.336C192.949 120.432 192.992 120.555 192.992 120.704C192.992 120.971 192.805 121.216 192.432 121.44C192.048 121.664 191.643 121.835 191.216 121.952C190.789 122.059 190.373 122.112 189.968 122.112C188.763 122.112 187.808 121.755 187.104 121.04C186.411 120.325 186.064 119.339 186.064 118.08C186.064 117.28 186.219 116.576 186.528 115.968C186.837 115.349 187.269 114.869 187.824 114.528C188.389 114.187 189.029 114.016 189.744 114.016C190.757 114.016 191.563 114.347 192.16 115.008C192.757 115.669 193.056 116.565 193.056 117.696C193.056 117.909 193.013 118.064 192.928 118.16C192.843 118.256 192.704 118.304 192.512 118.304H187.36C187.456 120.139 188.325 121.056 189.968 121.056C190.384 121.056 190.741 121.003 191.04 120.896C191.339 120.779 191.659 120.624 192 120.432C192.277 120.272 192.464 120.192 192.56 120.192ZM189.76 115.024C189.077 115.024 188.528 115.237 188.112 115.664C187.707 116.091 187.467 116.693 187.392 117.472H191.92C191.899 116.683 191.701 116.08 191.328 115.664C190.955 115.237 190.432 115.024 189.76 115.024ZM198.822 114.048C199.27 114.016 199.494 114.197 199.494 114.592C199.494 114.763 199.446 114.901 199.35 115.008C199.254 115.104 199.088 115.163 198.854 115.184L198.374 115.232C197.659 115.296 197.126 115.552 196.774 116C196.432 116.437 196.262 116.955 196.262 117.552V121.44C196.262 121.653 196.203 121.813 196.086 121.92C195.968 122.027 195.814 122.08 195.622 122.08C195.43 122.08 195.27 122.027 195.142 121.92C195.024 121.803 194.966 121.643 194.966 121.44V114.688C194.966 114.485 195.03 114.331 195.158 114.224C195.286 114.107 195.44 114.048 195.622 114.048C195.792 114.048 195.936 114.107 196.054 114.224C196.171 114.331 196.23 114.48 196.23 114.672V115.568C196.454 115.099 196.768 114.741 197.174 114.496C197.59 114.251 198.064 114.107 198.598 114.064L198.822 114.048Z" fill="#332701"/>
<rect x="0.5" y="52.5" width="65" height="31" rx="15.5" stroke="black"/>
<path d="M10.064 73C9.86133 73 9.696 72.9413 9.568 72.824C9.45067 72.7067 9.392 72.552 9.392 72.36V62.36C9.392 62.168 9.45067 62.0133 9.568 61.896C9.696 61.7787 9.86133 61.72 10.064 61.72H13.184C14.9867 61.72 16.3787 62.2107 17.36 63.192C18.352 64.1627 18.848 65.5493 18.848 67.352C18.848 69.1547 18.352 70.5467 17.36 71.528C16.368 72.5093 14.976 73 13.184 73H10.064ZM13.104 71.88C16.0267 71.88 17.488 70.3707 17.488 67.352C17.488 64.344 16.0267 62.84 13.104 62.84H10.704V71.88H13.104ZM21.6841 73.08C21.4921 73.08 21.3321 73.0267 21.2041 72.92C21.0868 72.8027 21.0281 72.6427 21.0281 72.44V65.688C21.0281 65.4853 21.0868 65.3307 21.2041 65.224C21.3321 65.1067 21.4921 65.048 21.6841 65.048C21.8761 65.048 22.0308 65.1067 22.1481 65.224C22.2655 65.3307 22.3241 65.4853 22.3241 65.688V72.44C22.3241 72.6533 22.2655 72.8133 22.1481 72.92C22.0308 73.0267 21.8761 73.08 21.6841 73.08ZM21.6841 63.368C21.4281 63.368 21.2201 63.2933 21.0601 63.144C20.9001 62.9947 20.8201 62.7973 20.8201 62.552C20.8201 62.3173 20.9001 62.1253 21.0601 61.976C21.2201 61.8267 21.4281 61.752 21.6841 61.752C21.9401 61.752 22.1481 61.8267 22.3081 61.976C22.4681 62.1253 22.5481 62.3173 22.5481 62.552C22.5481 62.7973 22.4681 62.9947 22.3081 63.144C22.1481 63.2933 21.9401 63.368 21.6841 63.368ZM30.3629 65.448C30.4802 65.192 30.6669 65.064 30.9229 65.064C31.0829 65.064 31.2269 65.1173 31.3549 65.224C31.4829 65.3307 31.5469 65.464 31.5469 65.624C31.5469 65.72 31.5255 65.8053 31.4829 65.88L28.3629 72.6C28.2989 72.7387 28.2029 72.8507 28.0749 72.936C27.9469 73.0107 27.8082 73.048 27.6589 73.048C27.5202 73.048 27.3869 73.0107 27.2589 72.936C27.1309 72.8507 27.0295 72.7387 26.9549 72.6L23.8509 65.88C23.8082 65.8053 23.7869 65.7253 23.7869 65.64C23.7869 65.48 23.8562 65.3413 23.9949 65.224C24.1442 65.1067 24.3042 65.048 24.4749 65.048C24.5815 65.048 24.6829 65.08 24.7789 65.144C24.8855 65.208 24.9655 65.2987 25.0189 65.416L27.6909 71.416L30.3629 65.448ZM33.6216 73.08C33.4296 73.08 33.2696 73.0267 33.1416 72.92C33.0243 72.8027 32.9656 72.6427 32.9656 72.44V65.688C32.9656 65.4853 33.0243 65.3307 33.1416 65.224C33.2696 65.1067 33.4296 65.048 33.6216 65.048C33.8136 65.048 33.9683 65.1067 34.0856 65.224C34.203 65.3307 34.2616 65.4853 34.2616 65.688V72.44C34.2616 72.6533 34.203 72.8133 34.0856 72.92C33.9683 73.0267 33.8136 73.08 33.6216 73.08ZM33.6216 63.368C33.3656 63.368 33.1576 63.2933 32.9976 63.144C32.8376 62.9947 32.7576 62.7973 32.7576 62.552C32.7576 62.3173 32.8376 62.1253 32.9976 61.976C33.1576 61.8267 33.3656 61.752 33.6216 61.752C33.8776 61.752 34.0856 61.8267 34.2456 61.976C34.4056 62.1253 34.4856 62.3173 34.4856 62.552C34.4856 62.7973 34.4056 62.9947 34.2456 63.144C34.0856 63.2933 33.8776 63.368 33.6216 63.368ZM39.3084 73.112C38.8177 73.112 38.3484 73.0533 37.9004 72.936C37.463 72.8187 37.0737 72.6533 36.7324 72.44C36.5404 72.312 36.4017 72.1947 36.3164 72.088C36.2417 71.9707 36.2044 71.832 36.2044 71.672C36.2044 71.5333 36.2417 71.4213 36.3164 71.336C36.4017 71.24 36.5084 71.192 36.6364 71.192C36.7644 71.192 36.951 71.272 37.1964 71.432C37.5164 71.624 37.831 71.7787 38.1404 71.896C38.4604 72.0027 38.855 72.056 39.3244 72.056C39.9004 72.056 40.3484 71.9547 40.6684 71.752C40.9884 71.5493 41.1484 71.256 41.1484 70.872C41.1484 70.6373 41.0897 70.4507 40.9724 70.312C40.855 70.1627 40.6524 70.0347 40.3644 69.928C40.0764 69.8107 39.655 69.6933 39.1004 69.576C38.1617 69.3733 37.4897 69.1013 37.0844 68.76C36.679 68.4187 36.4764 67.9547 36.4764 67.368C36.4764 66.9093 36.6044 66.504 36.8604 66.152C37.1164 65.8 37.4684 65.5227 37.9164 65.32C38.375 65.1173 38.8924 65.016 39.4684 65.016C39.8844 65.016 40.2844 65.0747 40.6684 65.192C41.063 65.2987 41.4097 65.4533 41.7084 65.656C42.071 65.912 42.2524 66.1787 42.2524 66.456C42.2524 66.5947 42.2097 66.712 42.1244 66.808C42.039 66.904 41.9377 66.952 41.8204 66.952C41.6924 66.952 41.5004 66.8613 41.2444 66.68C40.9457 66.488 40.663 66.3387 40.3964 66.232C40.1297 66.1253 39.799 66.072 39.4044 66.072C38.903 66.072 38.4977 66.184 38.1884 66.408C37.8897 66.632 37.7404 66.9307 37.7404 67.304C37.7404 67.5387 37.7937 67.7307 37.9004 67.88C38.0177 68.0187 38.2044 68.1467 38.4604 68.264C38.727 68.3707 39.1057 68.4773 39.5964 68.584C40.3217 68.744 40.8817 68.92 41.2764 69.112C41.6817 69.304 41.9697 69.5387 42.1404 69.816C42.311 70.0933 42.3964 70.4453 42.3964 70.872C42.3964 71.544 42.1137 72.088 41.5484 72.504C40.983 72.9093 40.2364 73.112 39.3084 73.112ZM47.6039 73.112C46.8679 73.112 46.2172 72.9467 45.6519 72.616C45.0972 72.2853 44.6652 71.816 44.3559 71.208C44.0572 70.5893 43.9079 69.8747 43.9079 69.064C43.9079 68.2533 44.0572 67.544 44.3559 66.936C44.6652 66.3173 45.0972 65.8427 45.6519 65.512C46.2172 65.1813 46.8679 65.016 47.6039 65.016C48.3399 65.016 48.9905 65.1813 49.5559 65.512C50.1212 65.8427 50.5532 66.3173 50.8519 66.936C51.1612 67.544 51.3159 68.2533 51.3159 69.064C51.3159 69.8747 51.1612 70.5893 50.8519 71.208C50.5532 71.816 50.1212 72.2853 49.5559 72.616C48.9905 72.9467 48.3399 73.112 47.6039 73.112ZM47.6039 72.04C48.3719 72.04 48.9585 71.7893 49.3639 71.288C49.7799 70.776 49.9879 70.0347 49.9879 69.064C49.9879 68.1147 49.7799 67.384 49.3639 66.872C48.9479 66.3493 48.3612 66.088 47.6039 66.088C46.8465 66.088 46.2599 66.3493 45.8439 66.872C45.4279 67.384 45.2199 68.1147 45.2199 69.064C45.2199 70.024 45.4225 70.76 45.8279 71.272C46.2439 71.784 46.8359 72.04 47.6039 72.04ZM57.1029 65.048C57.5509 65.016 57.7749 65.1973 57.7749 65.592C57.7749 65.7627 57.7269 65.9013 57.6309 66.008C57.5349 66.104 57.3695 66.1627 57.1349 66.184L56.6549 66.232C55.9402 66.296 55.4069 66.552 55.0549 67C54.7135 67.4373 54.5429 67.9547 54.5429 68.552V72.44C54.5429 72.6533 54.4842 72.8133 54.3669 72.92C54.2495 73.0267 54.0949 73.08 53.9029 73.08C53.7109 73.08 53.5509 73.0267 53.4229 72.92C53.3055 72.8027 53.2469 72.6427 53.2469 72.44V65.688C53.2469 65.4853 53.3109 65.3307 53.4389 65.224C53.5669 65.1067 53.7215 65.048 53.9029 65.048C54.0735 65.048 54.2175 65.1067 54.3349 65.224C54.4522 65.3307 54.5109 65.48 54.5109 65.672V66.568C54.7349 66.0987 55.0495 65.7413 55.4549 65.496C55.8709 65.2507 56.3455 65.1067 56.8789 65.064L57.1029 65.048Z" fill="#332701"/>
<rect x="81.5" y="0.5" width="78" height="31" rx="15.5" stroke="black"/>
<path d="M98.984 23.08C99.0587 23.1973 99.096 23.32 99.096 23.448C99.096 23.5973 99.0373 23.72 98.92 23.816C98.8027 23.912 98.664 23.96 98.504 23.96C98.2267 23.96 98.0027 23.8213 97.832 23.544L96.904 22.024C96.52 21.4267 95.9227 21.128 95.112 21.128C94.0667 21.128 93.1547 20.8933 92.376 20.424C91.608 19.9547 91.016 19.288 90.6 18.424C90.184 17.56 89.976 16.5413 89.976 15.368C89.976 14.184 90.1787 13.16 90.584 12.296C91 11.4213 91.592 10.7547 92.36 10.296C93.1387 9.82667 94.056 9.592 95.112 9.592C96.1573 9.592 97.064 9.82667 97.832 10.296C98.6107 10.7547 99.208 11.4213 99.624 12.296C100.04 13.16 100.248 14.1787 100.248 15.352C100.248 16.7173 99.9707 17.8747 99.416 18.824C98.872 19.7627 98.0933 20.4187 97.08 20.792C97.3147 20.8667 97.5227 20.9893 97.704 21.16C97.8853 21.3413 98.072 21.5867 98.264 21.896L98.984 23.08ZM91.32 15.352C91.32 16.8347 91.6507 17.9813 92.312 18.792C92.984 19.6027 93.9173 20.008 95.112 20.008C96.3067 20.008 97.2347 19.608 97.896 18.808C98.568 17.9973 98.904 16.8453 98.904 15.352C98.904 13.8587 98.5733 12.712 97.912 11.912C97.2507 11.112 96.3173 10.712 95.112 10.712C93.9173 10.712 92.984 11.1173 92.312 11.928C91.6507 12.728 91.32 13.8693 91.32 15.352ZM108.339 13.048C108.541 13.048 108.696 13.1067 108.803 13.224C108.92 13.3413 108.979 13.496 108.979 13.688V20.456C108.979 20.6373 108.92 20.7867 108.803 20.904C108.696 21.0213 108.541 21.08 108.339 21.08C108.147 21.08 107.992 21.0267 107.875 20.92C107.768 20.8027 107.715 20.6533 107.715 20.472V19.672C107.469 20.1413 107.123 20.4987 106.675 20.744C106.237 20.9893 105.741 21.112 105.187 21.112C104.259 21.112 103.56 20.856 103.091 20.344C102.621 19.8213 102.387 19.0533 102.387 18.04V13.688C102.387 13.496 102.445 13.3413 102.563 13.224C102.68 13.1067 102.84 13.048 103.043 13.048C103.245 13.048 103.4 13.1067 103.507 13.224C103.624 13.3413 103.683 13.496 103.683 13.688V18.008C103.683 18.7013 103.821 19.2133 104.099 19.544C104.376 19.864 104.813 20.024 105.411 20.024C106.093 20.024 106.643 19.8053 107.059 19.368C107.475 18.92 107.683 18.3333 107.683 17.608V13.688C107.683 13.496 107.741 13.3413 107.859 13.224C107.976 13.1067 108.136 13.048 108.339 13.048ZM114.62 21.112C113.884 21.112 113.233 20.9467 112.668 20.616C112.113 20.2853 111.681 19.816 111.372 19.208C111.073 18.5893 110.924 17.8747 110.924 17.064C110.924 16.2533 111.073 15.544 111.372 14.936C111.681 14.3173 112.113 13.8427 112.668 13.512C113.233 13.1813 113.884 13.016 114.62 13.016C115.356 13.016 116.006 13.1813 116.572 13.512C117.137 13.8427 117.569 14.3173 117.868 14.936C118.177 15.544 118.332 16.2533 118.332 17.064C118.332 17.8747 118.177 18.5893 117.868 19.208C117.569 19.816 117.137 20.2853 116.572 20.616C116.006 20.9467 115.356 21.112 114.62 21.112ZM114.62 20.04C115.388 20.04 115.974 19.7893 116.38 19.288C116.796 18.776 117.004 18.0347 117.004 17.064C117.004 16.1147 116.796 15.384 116.38 14.872C115.964 14.3493 115.377 14.088 114.62 14.088C113.862 14.088 113.276 14.3493 112.86 14.872C112.444 15.384 112.236 16.1147 112.236 17.064C112.236 18.024 112.438 18.76 112.844 19.272C113.26 19.784 113.852 20.04 114.62 20.04ZM123.847 20.056C124.22 20.088 124.407 20.2587 124.407 20.568C124.407 20.7493 124.338 20.888 124.199 20.984C124.071 21.0693 123.874 21.1013 123.607 21.08L123.175 21.048C122.322 20.984 121.692 20.728 121.287 20.28C120.882 19.832 120.679 19.1547 120.679 18.248V14.232H119.607C119.426 14.232 119.282 14.1893 119.175 14.104C119.079 14.008 119.031 13.8853 119.031 13.736C119.031 13.576 119.079 13.448 119.175 13.352C119.282 13.256 119.426 13.208 119.607 13.208H120.679V11.4C120.679 11.1973 120.738 11.0427 120.855 10.936C120.972 10.8187 121.132 10.76 121.335 10.76C121.527 10.76 121.682 10.8187 121.799 10.936C121.916 11.0427 121.975 11.1973 121.975 11.4V13.208H123.751C123.922 13.208 124.055 13.256 124.151 13.352C124.258 13.448 124.311 13.576 124.311 13.736C124.311 13.8853 124.258 14.008 124.151 14.104C124.055 14.1893 123.922 14.232 123.751 14.232H121.975V18.312C121.975 18.8987 122.092 19.3253 122.327 19.592C122.572 19.848 122.935 19.992 123.415 20.024L123.847 20.056ZM126.34 21.08C126.148 21.08 125.988 21.0267 125.86 20.92C125.743 20.8027 125.684 20.6427 125.684 20.44V13.688C125.684 13.4853 125.743 13.3307 125.86 13.224C125.988 13.1067 126.148 13.048 126.34 13.048C126.532 13.048 126.687 13.1067 126.804 13.224C126.922 13.3307 126.98 13.4853 126.98 13.688V20.44C126.98 20.6533 126.922 20.8133 126.804 20.92C126.687 21.0267 126.532 21.08 126.34 21.08ZM126.34 11.368C126.084 11.368 125.876 11.2933 125.716 11.144C125.556 10.9947 125.476 10.7973 125.476 10.552C125.476 10.3173 125.556 10.1253 125.716 9.976C125.876 9.82667 126.084 9.752 126.34 9.752C126.596 9.752 126.804 9.82667 126.964 9.976C127.124 10.1253 127.204 10.3173 127.204 10.552C127.204 10.7973 127.124 10.9947 126.964 11.144C126.804 11.2933 126.596 11.368 126.34 11.368ZM135.435 19.192C135.552 19.192 135.654 19.24 135.739 19.336C135.824 19.432 135.867 19.5547 135.867 19.704C135.867 19.9707 135.68 20.216 135.307 20.44C134.923 20.664 134.518 20.8347 134.091 20.952C133.664 21.0587 133.248 21.112 132.843 21.112C131.638 21.112 130.683 20.7547 129.979 20.04C129.286 19.3253 128.939 18.3387 128.939 17.08C128.939 16.28 129.094 15.576 129.403 14.968C129.712 14.3493 130.144 13.8693 130.699 13.528C131.264 13.1867 131.904 13.016 132.619 13.016C133.632 13.016 134.438 13.3467 135.035 14.008C135.632 14.6693 135.931 15.5653 135.931 16.696C135.931 16.9093 135.888 17.064 135.803 17.16C135.718 17.256 135.579 17.304 135.387 17.304H130.235C130.331 19.1387 131.2 20.056 132.843 20.056C133.259 20.056 133.616 20.0027 133.915 19.896C134.214 19.7787 134.534 19.624 134.875 19.432C135.152 19.272 135.339 19.192 135.435 19.192ZM132.635 14.024C131.952 14.024 131.403 14.2373 130.987 14.664C130.582 15.0907 130.342 15.6933 130.267 16.472H134.795C134.774 15.6827 134.576 15.08 134.203 14.664C133.83 14.2373 133.307 14.024 132.635 14.024ZM141.761 13.016C143.627 13.016 144.561 14.0453 144.561 16.104V20.44C144.561 20.6427 144.502 20.8027 144.385 20.92C144.278 21.0267 144.123 21.08 143.921 21.08C143.718 21.08 143.558 21.0267 143.441 20.92C143.323 20.8027 143.265 20.6427 143.265 20.44V16.184C143.265 15.4587 143.121 14.9307 142.833 14.6C142.555 14.2693 142.107 14.104 141.489 14.104C140.774 14.104 140.203 14.3227 139.777 14.76C139.35 15.1973 139.137 15.7893 139.137 16.536V20.44C139.137 20.6427 139.078 20.8027 138.961 20.92C138.854 21.0267 138.699 21.08 138.497 21.08C138.294 21.08 138.134 21.0267 138.017 20.92C137.899 20.8027 137.841 20.6427 137.841 20.44V13.688C137.841 13.496 137.899 13.3413 138.017 13.224C138.134 13.1067 138.294 13.048 138.497 13.048C138.689 13.048 138.838 13.1067 138.945 13.224C139.062 13.3413 139.121 13.4907 139.121 13.672V14.488C139.377 14.008 139.734 13.6453 140.193 13.4C140.651 13.144 141.174 13.016 141.761 13.016ZM150.534 20.056C150.908 20.088 151.094 20.2587 151.094 20.568C151.094 20.7493 151.025 20.888 150.886 20.984C150.758 21.0693 150.561 21.1013 150.294 21.08L149.862 21.048C149.009 20.984 148.38 20.728 147.974 20.28C147.569 19.832 147.366 19.1547 147.366 18.248V14.232H146.294C146.113 14.232 145.969 14.1893 145.862 14.104C145.766 14.008 145.718 13.8853 145.718 13.736C145.718 13.576 145.766 13.448 145.862 13.352C145.969 13.256 146.113 13.208 146.294 13.208H147.366V11.4C147.366 11.1973 147.425 11.0427 147.542 10.936C147.66 10.8187 147.82 10.76 148.022 10.76C148.214 10.76 148.369 10.8187 148.486 10.936C148.604 11.0427 148.662 11.1973 148.662 11.4V13.208H150.438C150.609 13.208 150.742 13.256 150.838 13.352C150.945 13.448 150.998 13.576 150.998 13.736C150.998 13.8853 150.945 14.008 150.838 14.104C150.742 14.1893 150.609 14.232 150.438 14.232H148.662V18.312C148.662 18.8987 148.78 19.3253 149.014 19.592C149.26 19.848 149.622 19.992 150.102 20.024L150.534 20.056Z" fill="#332701"/>
</svg>
