<svg xmlns="http://www.w3.org/2000/svg" width="64" height="64" id="grape"><g fill="none" fill-rule="evenodd"><path fill="#3BB777" d="M32.085 2.133c-5.628 20.642 10.907 19.013 10.907 19.013S52.774 7.748 32.085 2.133"></path><path fill="#229857" d="m32.085 2.133 10.907 19.013S52.774 7.747 32.085 2.133"></path><path fill="#454849" d="M33.274 4.205c-1.278 5.611-.826 9.748 1.347 12.31 2.255 2.662 5.865 2.998 7.435 3.01.784-1.366 2.33-4.676 1.167-7.947-1.123-3.157-4.468-5.634-9.95-7.373m8.89 18.624c-2.072 0-6.9-.435-10.073-4.178-3.125-3.688-3.665-9.39-1.604-16.953A1.658 1.658 0 0 1 32.52.538c7.578 2.055 12.234 5.41 13.838 9.967C48.433 16.4 44.5 21.887 44.33 22.118a1.66 1.66 0 0 1-1.176.672c-.062.006-.421.04-.991.04"></path><path fill="#6E54A3" d="M32.998 50.84c0 4.198-3.41 7.6-7.618 7.6s-7.618-3.402-7.618-7.6c0-4.197 3.41-7.6 7.618-7.6 4.207 0 7.618 3.403 7.618 7.6"></path><path fill="#6E54A3" d="M32.998 50.84c0 4.198-3.41 7.6-7.618 7.6s-7.618-3.402-7.618-7.6c0-4.197 3.41-7.6 7.618-7.6 4.207 0 7.618 3.403 7.618 7.6"></path><path fill="#7E64AB" d="M25.38 52.594a9.356 9.356 0 0 0 7.37-3.584c-.824-3.308-3.799-5.77-7.37-5.77s-6.546 2.462-7.37 5.77a9.358 9.358 0 0 0 7.37 3.584"></path><path fill="#FEFEFE" d="M27.312 47.226a1.93 1.93 0 0 1-1.932 1.927 1.93 1.93 0 0 1-1.932-1.927 1.93 1.93 0 0 1 1.932-1.928 1.93 1.93 0 0 1 1.932 1.928"></path><path fill="#454849" d="M25.38 44.893c-3.287 0-5.961 2.667-5.961 5.947 0 3.279 2.674 5.947 5.96 5.947 3.287 0 5.961-2.668 5.961-5.947 0-3.28-2.674-5.947-5.96-5.947m0 15.2c-5.114 0-9.275-4.149-9.275-9.253 0-5.102 4.16-9.253 9.275-9.253 5.114 0 9.275 4.151 9.275 9.253 0 5.104-4.161 9.254-9.275 9.254"></path><path fill="#6E54A3" d="M21.011 38.882c0 4.198-3.41 7.6-7.617 7.6-4.208 0-7.618-3.402-7.618-7.6 0-4.198 3.41-7.6 7.618-7.6 4.207 0 7.617 3.402 7.617 7.6"></path><path fill="#6E54A3" d="M21.011 38.882c0 4.198-3.41 7.6-7.617 7.6-4.208 0-7.618-3.402-7.618-7.6 0-4.198 3.41-7.6 7.618-7.6 4.207 0 7.617 3.402 7.617 7.6"></path><path fill="#7E64AB" d="M13.394 40.636a9.356 9.356 0 0 0 7.369-3.585c-.824-3.308-3.798-5.77-7.37-5.77-3.57 0-6.545 2.462-7.369 5.77a9.358 9.358 0 0 0 7.37 3.585"></path><path fill="#FEFEFE" d="M15.326 35.267a1.93 1.93 0 0 1-1.932 1.928 1.93 1.93 0 0 1-1.933-1.928 1.93 1.93 0 0 1 1.933-1.928 1.93 1.93 0 0 1 1.932 1.928"></path><path fill="#454849" d="M13.394 32.936c-3.286 0-5.961 2.667-5.961 5.947 0 3.278 2.675 5.945 5.96 5.945 3.287 0 5.961-2.667 5.961-5.945 0-3.28-2.674-5.947-5.96-5.947m0 15.199c-5.114 0-9.275-4.15-9.275-9.252s4.16-9.254 9.275-9.254c5.114 0 9.275 4.152 9.275 9.254 0 5.102-4.161 9.252-9.275 9.252"></path><path fill="#6E54A3" d="M51.476 32.405c0 4.198-3.41 7.6-7.618 7.6s-7.618-3.402-7.618-7.6c0-4.198 3.41-7.6 7.618-7.6 4.207 0 7.618 3.402 7.618 7.6"></path><path fill="#6E54A3" d="M51.476 32.405c0 4.198-3.41 7.6-7.618 7.6s-7.618-3.402-7.618-7.6c0-4.198 3.41-7.6 7.618-7.6 4.207 0 7.618 3.402 7.618 7.6"></path><path fill="#7E64AB" d="M43.858 34.159a9.358 9.358 0 0 0 7.37-3.585c-.824-3.308-3.799-5.77-7.37-5.77s-6.546 2.462-7.37 5.77a9.356 9.356 0 0 0 7.37 3.585"></path><path fill="#FEFEFE" d="M45.79 28.79a1.93 1.93 0 0 1-1.932 1.928 1.93 1.93 0 0 1-1.932-1.928 1.93 1.93 0 0 1 1.932-1.928 1.93 1.93 0 0 1 1.932 1.928"></path><path fill="#454849" d="M43.858 26.458c-3.286 0-5.96 2.667-5.96 5.947 0 3.279 2.674 5.945 5.96 5.945s5.96-2.666 5.96-5.945c0-3.28-2.674-5.947-5.96-5.947m0 15.2c-5.114 0-9.275-4.15-9.275-9.253 0-5.102 4.161-9.253 9.275-9.253 5.114 0 9.275 4.151 9.275 9.253s-4.161 9.252-9.275 9.252"></path><path fill="#6E54A3" d="M39.49 20.446c0 4.198-3.411 7.6-7.618 7.6-4.208 0-7.618-3.402-7.618-7.6 0-4.197 3.41-7.6 7.618-7.6 4.207 0 7.617 3.403 7.617 7.6"></path><path fill="#6E54A3" d="M39.49 20.446c0 4.198-3.411 7.6-7.618 7.6-4.208 0-7.618-3.402-7.618-7.6 0-4.197 3.41-7.6 7.618-7.6 4.207 0 7.617 3.403 7.617 7.6"></path><path fill="#7E64AB" d="M31.872 22.2a9.356 9.356 0 0 0 7.369-3.584c-.824-3.308-3.798-5.77-7.37-5.77-3.57 0-6.545 2.462-7.369 5.77a9.358 9.358 0 0 0 7.37 3.584"></path><path fill="#FEFEFE" d="M33.804 16.832a1.93 1.93 0 0 1-1.932 1.927 1.93 1.93 0 0 1-1.933-1.927 1.93 1.93 0 0 1 1.933-1.928 1.93 1.93 0 0 1 1.932 1.928"></path><path fill="#454849" d="M31.871 14.5c-3.286 0-5.96 2.668-5.96 5.948 0 3.278 2.674 5.945 5.96 5.945 3.287 0 5.961-2.667 5.961-5.945 0-3.28-2.674-5.949-5.96-5.949m0 15.2c-5.115 0-9.276-4.15-9.276-9.251 0-5.104 4.161-9.255 9.275-9.255 5.114 0 9.275 4.151 9.275 9.255 0 5.102-4.16 9.252-9.275 9.252"></path><path fill="#6E54A3" d="M36.28 35.607c0 4.198-3.41 7.6-7.618 7.6-4.207 0-7.618-3.402-7.618-7.6 0-4.198 3.41-7.6 7.618-7.6 4.207 0 7.618 3.402 7.618 7.6"></path><path fill="#6E54A3" d="M36.28 35.607c0 4.198-3.41 7.6-7.618 7.6-4.207 0-7.618-3.402-7.618-7.6 0-4.198 3.41-7.6 7.618-7.6 4.207 0 7.618 3.402 7.618 7.6"></path><path fill="#7E64AB" d="M28.662 37.36a9.356 9.356 0 0 0 7.37-3.584c-.824-3.308-3.799-5.77-7.37-5.77-3.57 0-6.545 2.462-7.37 5.77a9.358 9.358 0 0 0 7.37 3.585"></path><path fill="#FEFEFE" d="M30.594 31.992a1.93 1.93 0 0 1-1.932 1.928 1.93 1.93 0 0 1-1.932-1.928 1.93 1.93 0 0 1 1.932-1.927 1.93 1.93 0 0 1 1.932 1.927"></path><path fill="#454849" d="M28.662 29.66c-3.286 0-5.96 2.667-5.96 5.947 0 3.278 2.674 5.947 5.96 5.947s5.961-2.669 5.961-5.947c0-3.28-2.675-5.947-5.96-5.947m0 15.2c-5.115 0-9.276-4.15-9.276-9.253 0-5.102 4.161-9.254 9.275-9.254 5.114 0 9.275 4.152 9.275 9.254 0 5.104-4.16 9.253-9.275 9.253"></path><path fill="#6E54A3" d="M24.294 23.649c0 4.197-3.41 7.6-7.618 7.6s-7.618-3.403-7.618-7.6c0-4.198 3.41-7.6 7.618-7.6 4.207 0 7.618 3.402 7.618 7.6"></path><path fill="#6E54A3" d="M24.294 23.649c0 4.197-3.41 7.6-7.618 7.6s-7.618-3.403-7.618-7.6c0-4.198 3.41-7.6 7.618-7.6 4.207 0 7.618 3.402 7.618 7.6"></path><path fill="#7E64AB" d="M16.676 25.402a9.358 9.358 0 0 0 7.37-3.584c-.824-3.308-3.799-5.77-7.37-5.77s-6.546 2.462-7.37 5.77a9.358 9.358 0 0 0 7.37 3.584"></path><path fill="#FEFEFE" d="M18.608 20.034a1.93 1.93 0 0 1-1.932 1.928 1.93 1.93 0 0 1-1.932-1.928 1.93 1.93 0 0 1 1.932-1.928 1.93 1.93 0 0 1 1.932 1.928"></path><path fill="#454849" d="M16.676 17.702c-3.286 0-5.96 2.667-5.96 5.947 0 3.279 2.674 5.946 5.96 5.946 3.287 0 5.961-2.667 5.961-5.946 0-3.28-2.674-5.947-5.96-5.947m0 15.2c-5.114 0-9.275-4.15-9.275-9.253 0-5.102 4.16-9.253 9.274-9.253 5.114 0 9.275 4.151 9.275 9.253 0 5.103-4.16 9.252-9.275 9.252"></path><path fill="#6E54A3" d="M47.66 46.96c0 4.198-3.41 7.6-7.618 7.6s-7.618-3.402-7.618-7.6c0-4.197 3.41-7.6 7.618-7.6 4.207 0 7.618 3.403 7.618 7.6"></path><path fill="#6E54A3" d="M47.66 46.96c0 4.198-3.41 7.6-7.618 7.6s-7.618-3.402-7.618-7.6c0-4.197 3.41-7.6 7.618-7.6 4.207 0 7.618 3.403 7.618 7.6"></path><path fill="#7E64AB" d="M40.042 48.714a9.358 9.358 0 0 0 7.37-3.584c-.824-3.308-3.799-5.77-7.37-5.77s-6.546 2.462-7.37 5.77a9.358 9.358 0 0 0 7.37 3.584"></path><path fill="#FEFEFE" d="M41.974 43.346a1.93 1.93 0 0 1-1.932 1.927 1.93 1.93 0 0 1-1.932-1.927 1.93 1.93 0 0 1 1.932-1.928 1.93 1.93 0 0 1 1.932 1.928"></path><path fill="#454849" d="M40.042 41.013c-3.286 0-5.96 2.667-5.96 5.947 0 3.279 2.674 5.947 5.96 5.947s5.96-2.668 5.96-5.947c0-3.28-2.674-5.947-5.96-5.947m0 15.201c-5.114 0-9.275-4.15-9.275-9.254 0-5.102 4.161-9.253 9.275-9.253 5.114 0 9.275 4.151 9.275 9.253 0 5.104-4.16 9.254-9.275 9.254"></path><path fill="#6E54A3" d="M17.893 54.35c0 4.197-3.41 7.6-7.618 7.6-4.207 0-7.618-3.403-7.618-7.6 0-4.199 3.41-7.601 7.618-7.601 4.207 0 7.618 3.402 7.618 7.6"></path><path fill="#6E54A3" d="M17.893 54.35c0 4.197-3.41 7.6-7.618 7.6-4.207 0-7.618-3.403-7.618-7.6 0-4.199 3.41-7.601 7.618-7.601 4.207 0 7.618 3.402 7.618 7.6"></path><path fill="#7E64AB" d="M10.275 56.103a9.358 9.358 0 0 0 7.37-3.584c-.824-3.309-3.799-5.77-7.37-5.77s-6.546 2.461-7.37 5.77a9.358 9.358 0 0 0 7.37 3.584"></path><path fill="#FEFEFE" d="M12.207 50.734a1.93 1.93 0 0 1-1.932 1.928 1.93 1.93 0 0 1-1.932-1.928 1.93 1.93 0 0 1 1.932-1.927 1.93 1.93 0 0 1 1.932 1.927"></path><path fill="#454849" d="M10.275 48.402c-3.286 0-5.96 2.668-5.96 5.948 0 3.279 2.674 5.946 5.96 5.946s5.961-2.667 5.961-5.946c0-3.28-2.675-5.948-5.96-5.948m0 15.2C5.16 63.602 1 59.452 1 54.35c0-5.103 4.161-9.255 9.275-9.255 5.114 0 9.275 4.152 9.275 9.255 0 5.102-4.16 9.252-9.275 9.252m41.9-45.349c-.699 1.209-.977 2.495-.66 3.43.28.837 1.1 1.327 2.433 1.456.971.092 2.21-.047 2.597-1.244.315-.977-.063-2.432-1.39-3.202-.744-.435-1.745-.617-2.98-.44m-13.15 8.703c-.4 0-.803-.144-1.121-.438a1.648 1.648 0 0 1-.098-2.335c5.12-5.551 9.237-7.98 12.37-8.863.355-.453.753-.884 1.189-1.285 2.83-2.602 6.559-3.288 9.973-1.821a1.65 1.65 0 0 1 .868 2.17 1.665 1.665 0 0 1-2.178.868c-1.814-.782-3.382-.52-4.553-.008a6.613 6.613 0 0 1 1.35.592c2.517 1.465 3.725 4.44 2.874 7.074-.622 1.925-2.557 3.87-6.07 3.519-3.61-.348-4.843-2.462-5.257-3.69-.31-.918-.368-1.942-.204-2.988-2.253 1.275-4.911 3.406-7.922 6.67a1.654 1.654 0 0 1-1.222.535"></path></g></svg>