<svg xmlns="http://www.w3.org/2000/svg" enable-background="new 0 0 50 50" viewBox="0 0 50 50" id="pineapple"><path fill="#BED150" d="M28.16814,15.71949c-0.41742-4.48833-1.23976-9.86657-2.45378-14.20771
			c-1.83631,5.29764-3.14406,10.77834-3.89754,16.33435"></path><path fill="#BED150" d="M29.02887,19.50767c1.26737-5.78524,4.29776-11.00653,7.28522-16.12026
			c-5.12213,1.94123-9.14164,6.56044-10.35649,11.90167c-0.36678,1.61258-1.13737,3.25332-1.29431,4.89962"></path><path fill="#BED150" d="M21.19598 18.28652c.59046-5.31294-3.29184-10.33395-7.12059-16.50254 4.3228 3.27892 8.94877 6.85526 10.30958 12.31896.53192 2.13569 1.05434 4.08527 1.12895 6.28494M25.95761 20.03395c1.21485-5.34123 5.23436-9.96044 10.35649-11.90167-2.98747 5.11373-6.01785 10.33502-7.28522 16.12026"></path><path fill="#BED150" d="M23.94859,20.03395c-1.21485-5.34123-5.23436-9.96044-10.35649-11.90167
			c2.98747,5.11373,6.01786,10.33502,7.28523,16.12026"></path><path fill="#ED9B34" d="M22.58028,20.36069c-1.76356-0.59163-3.76859,0.19259-5.06538,1.52619
			c-3.64027,3.74361-7.26774,20.95736,0.88509,25.23526c2.39977,1.25919,8.57576,1.73815,11.03629,1.05354
			c4.1551-1.15608,6.51818-5.30232,6.96898-9.72359c0.33411-3.27682-0.26586-6.56896-0.86333-9.80813
			c-1.1639-6.31008-3.10299-8.15765-10.76122-8.18268L22.58028,20.36069z"></path><path fill="#353535" d="M36.67927,32.37562l0.02429-0.01184c-0.01074-0.02222-0.02344-0.0437-0.03418-0.06592
		c-0.77232-5.44202-1.41927-10.23705-6.05151-11.67822c1.51904-4.30713,3.84424-8.32617,6.12769-12.23535
		c0.10742-0.18262,0.08691-0.41309-0.0498-0.5752s-0.3623-0.21973-0.55859-0.14453c-0.7865,0.2981-1.54211,0.66138-2.26965,1.0708
		c0.92871-1.72498,1.90173-3.42444,2.87805-5.09619c0.10742-0.18262,0.08691-0.41309-0.0498-0.5752s-0.3623-0.21875-0.55859-0.14453
		c-3.38074,1.28125-6.2605,3.64868-8.23669,6.62646c-0.46814-3.00903-1.05103-5.83167-1.70471-8.16846
		c-0.05859-0.21094-0.24805-0.3584-0.46582-0.36523c-0.26367-0.00195-0.41602,0.12988-0.48828,0.33594
		c-0.92773,2.67737-1.70447,5.41101-2.35693,8.1748c-2.172-3.32214-5.4801-5.84131-8.50732-8.1377
		c-0.18945-0.14551-0.45801-0.13184-0.63867,0.02832c-0.17773,0.16309-0.21484,0.42871-0.08789,0.63379
		c0.55469,0.89453,1.11133,1.76465,1.65527,2.61621c1.37378,2.14954,2.65881,4.17041,3.63806,6.12915
		c-1.51843-1.33032-3.2655-2.40442-5.17517-3.12817c-0.19629-0.07324-0.42188-0.0166-0.55859,0.14453
		c-0.13672,0.16211-0.15723,0.39258-0.0498,0.5752c2.20337,3.77197,4.448,7.64526,5.97095,11.78088
		c-5.14976,2.28093-6.80992,13.63339-5.89282,19.39099c0.61719,3.87109,2.32129,6.64063,4.92871,8.00879
		c1.86426,0.97754,5.52148,1.42285,8.13086,1.42285c0.9502,0,2.28809-0.05762,3.27148-0.33105
		c3.99805-1.11133,6.80762-5.00195,7.33301-10.1543C37.11274,36.44361,36.96235,34.3954,36.67927,32.37562z M14.10054,38.38893
		l0.70752,0.76563c-0.16064,0.27466-0.3186,0.55078-0.46973,0.83093C14.24288,39.49767,14.20398,39.36635,14.10054,38.38893z
		 M14.20466,32.55409l0.05847,0.02844c0.20691-0.42725,0.43164-0.84619,0.65698-1.26465l3.07703,3.25806
		c-1.05261,1.32129-2.04578,2.69043-2.92261,4.12988l-0.91882-0.99438l-0.10742,0.09949
		C13.91389,36.07716,13.98555,34.28785,14.20466,32.55409z M23.37349,20.88575c3.55628,0.12768,3.58889,0.14963,3.68945,0.15674
		c0.32251,0.25891,0.63367,0.5321,0.94641,0.80322c-0.80798,1.41406-1.73743,2.76208-2.73755,4.06104
		c-1.01428-1.29077-1.97034-2.62439-2.80566-4.02539c0.33484-0.29126,0.6687-0.58398,1.01477-0.86133L23.37349,20.88575z
		 M22.2115,21.44191c-0.1405-0.24573-0.27551-0.49426-0.40808-0.74426c0.21191,0.02844,0.41956,0.07043,0.61792,0.13684
		l0.47534,0.02563C22.66499,21.04982,22.43818,21.24574,22.2115,21.44191z M27.93013,21.12269
		c0.14917,0.0166,0.30603,0.03015,0.44873,0.04968c-0.04053,0.07568-0.08289,0.15051-0.12402,0.22595
		C28.14717,21.30568,28.03877,21.214,27.93013,21.12269z M35.92305,38.18617l-0.51465,0.55701
		c-0.85376-1.45972-1.83203-2.84485-2.87622-4.17981l2.98682-3.16248C35.88374,33.6482,36.12471,35.92677,35.92305,38.18617z
		 M32.22065,34.16505c-1.01685-1.27686-2.0813-2.5127-3.13989-3.72998c1.10144-1.12598,2.26807-2.38379,3.48181-3.77783
		c1.0304,1.32898,1.96741,2.72974,2.78699,4.19482L32.22065,34.16505z M26.35005,34.49952
		c-0.23511-0.22046-0.48169-0.45251-0.72656-0.68298c0.96533-0.91223,2.00537-1.91492,3.104-3.02612
		c1.06177,1.22131,2.12866,2.46179,3.14575,3.74231l-2.61194,2.76563C28.37165,36.40382,27.40742,35.49171,26.35005,34.49952z
		 M21.25618,37.29835l-2.59827-2.75122c0.99951-1.23706,2.04272-2.43774,3.07397-3.6228
		c0.02966-0.03406,0.05957-0.0686,0.08911-0.10278c1.08691,1.09851,2.1167,2.09155,3.073,2.995
		c-0.24487,0.23047-0.49146,0.46252-0.72656,0.68298C23.11006,35.49171,22.14582,36.40382,21.25618,37.29835z M22.14961,30.44288
		c1.05591-1.21545,2.11377-2.45215,3.12207-3.73071c1.01611,1.26538,2.07642,2.49158,3.1272,3.69946
		c-1.11206,1.12585-2.16431,2.14001-3.14014,3.06165C24.29219,32.56031,23.24995,31.55592,22.14961,30.44288z M28.75166,30.05568
		c-1.06348-1.22278-2.13611-2.46509-3.16113-3.74646c1.02124-1.32019,1.97681-2.69031,2.80762-4.13342
		c1.39368,1.24646,2.68506,2.6123,3.85522,4.07556C31.03218,27.65699,29.85969,28.92189,28.75166,30.05568z M24.95295,26.30934
		c-1.01685,1.29468-2.08777,2.54712-3.15662,3.77808c-1.11694-1.14185-2.30005-2.41772-3.53223-3.83606
		c1.15967-1.4502,2.43762-2.80566,3.81702-4.04309C22.9394,23.63868,23.91719,24.99708,24.95295,26.30934z M21.46748,30.46656
		c-0.03748,0.04297-0.0752,0.08667-0.11255,0.12964c-1.02026,1.17236-2.05176,2.3606-3.04297,3.58472l-3.14404-3.32886
		c0.81958-1.46509,1.75659-2.86584,2.78699-4.19482C19.18013,28.06434,20.35688,29.33216,21.46748,30.46656z M14.80635,30.48231
		l-0.32617,0.30872c0.43164-2.32129,1.09766-4.44434,1.84155-6.06396c0.43799,0.53345,0.87109,1.05151,1.29675,1.54639
		C16.57905,27.60646,15.63643,29.01344,14.80635,30.48231z M14.55684,30.93336c-0.05396,0.09912-0.10278,0.20044-0.15576,0.30005
		c0.02246-0.1311,0.0459-0.26111,0.06982-0.39099L14.55684,30.93336z M15.16206,39.53761l2.28125,2.46875
		c-0.46802,0.78174-0.8866,1.61145-1.24878,2.52075c-0.84656-1.16321-1.36743-2.5083-1.6853-3.78223
		C14.71711,40.33717,14.93306,39.93385,15.16206,39.53761z M15.42866,39.089c0.87-1.44324,1.86133-2.81775,2.91589-4.14514
		l2.56165,2.71216c-1.23389,1.26709-2.30078,2.51868-3.18921,3.9093L15.42866,39.089z M21.24983,38.02003l3.66492,3.88037
		l-3.48157,3.6864l-3.36755-3.64417C18.94477,40.54518,20.01265,39.29249,21.24983,38.02003z M21.60005,37.66236
		c0.88745-0.89343,1.85083-1.80493,2.90918-2.79761c0.24255-0.22754,0.49658-0.46655,0.74951-0.70459
		c0.25293,0.23804,0.50696,0.47705,0.74951,0.70459c1.05835,0.99268,2.02173,1.90417,2.90918,2.79761l-3.65869,3.8739
		L21.60005,37.66236z M29.26765,38.02003c1.23718,1.27246,2.30505,2.52515,3.1842,3.92261L29.0843,45.5868l-3.48157-3.6864
		L29.26765,38.02003z M29.61128,37.65602l2.57373-2.7251c1.04614,1.34143,2.02393,2.73132,2.86963,4.19507l-2.25415,2.43921
		C31.91206,40.17457,30.84517,38.92311,29.61128,37.65602z M35.31758,39.57862c0.10425,0.18872,0.19702,0.38354,0.29651,0.57495
		c-0.30261,1.31848-0.80005,2.64612-1.53418,3.82544c-0.30408-0.69458-0.63538-1.35425-1.00574-1.97266L35.31758,39.57862z
		 M35.675,39.19191l0.15417-0.16699c-0.01672,0.11426-0.0376,0.229-0.05725,0.34399
		C35.73945,39.30995,35.70784,39.2505,35.675,39.19191z M35.21626,29.64759c-0.70496-1.16833-1.47705-2.29663-2.31714-3.37402
		c0.36682-0.42639,0.74072-0.87561,1.11646-1.33044c0.43896,1.021,0.75317,2.26904,1.03369,3.79175
		C35.10518,29.03785,35.16084,29.34278,35.21626,29.64759z M33.77998,24.44508c-0.4021,0.48926-0.80151,0.9696-1.19348,1.42627
		c-1.1969-1.48889-2.5177-2.87683-3.94299-4.14307c0.08618-0.15625,0.17432-0.31128,0.25732-0.46924
		C31.44844,21.69947,32.87141,22.67628,33.77998,24.44508z M35.10981,9.20558c-2.06812,3.55884-4.08545,7.23047-5.4624,11.16101
		c-0.91357-0.19397-1.96606-0.30627-3.16199-0.36108C27.57869,15.4087,30.87495,11.31666,35.10981,9.20558z M35.10981,4.45948
		C34.08747,6.21913,33.08052,8.0077,32.1529,9.839c-2.94507,2.15515-5.18982,5.22791-6.30432,8.72376
		c-0.03333-0.24231-0.07373-0.48169-0.11475-0.72083c0.39758-1.30371,0.5564-1.75842,0.71094-2.44104
		C27.50337,10.74659,30.83247,6.59327,35.10981,4.45948z M25.65474,3.26222c0.55627,2.27441,1.04199,4.8999,1.43359,7.64221
		c-1.16309,2.15466-1.42017,3.59387-1.7771,4.86804c-0.48572-2.04199-0.76038-3.2644-1.69775-5.02271
		C24.18208,8.2234,24.85713,5.7212,25.65474,3.26222z M16.14888,4.12452c-0.04785-0.07422-0.09668-0.14941-0.14453-0.22559
		c3.44531,2.72754,6.79492,5.90723,7.89551,10.3252c0.45386,1.84424,0.94971,3.68921,1.07898,5.74158
		c-0.18848-0.0011-0.35535-0.01257-0.54224-0.02014c-0.14941-0.41418-0.67297-3.66357-3.5127-7.1095
		C19.91999,10.03688,18.11885,7.20826,16.14888,4.12452z M14.79634,9.2046c4.20142,2.09546,7.47363,6.14063,8.59302,10.69312
		l-0.71802-0.03296c-0.80859-0.25684-1.70825-0.24268-2.59106-0.01904C18.70881,16.11073,16.77339,12.60719,14.79634,9.2046z
		 M21.22065,20.6736c0.19141,0.37146,0.39355,0.73682,0.60205,1.09839c-1.40601,1.25415-2.70898,2.62805-3.89172,4.09937
		c-0.45056-0.5249-0.90833-1.07251-1.37231-1.64075C17.49976,22.35669,18.90444,20.741,21.22065,20.6736z M16.34004,44.70973
		l0.27173,0.1062c0.34204-0.87451,0.74512-1.66724,1.18921-2.42261l3.28784,3.55811l-1.0415,1.10278l0.22644,0.21423
		c-0.65759-0.17468-1.22803-0.37146-1.64148-0.58826C17.68135,46.18116,16.9416,45.48829,16.34004,44.70973z M21.42915,46.31959
		l1.31787,1.42627c-0.82031-0.10999-1.58472-0.25488-2.26392-0.42468L21.42915,46.31959z M23.50996,47.83424l-1.73657-1.87927
		l3.48535-3.69031l3.48535,3.69031L26.91157,47.938l0.03882,0.03589c-0.21313,0.00671-0.42554,0.01392-0.6521,0.01392
		C25.36934,47.9878,24.42305,47.9297,23.50996,47.83424z M27.58955,47.94142l1.49878-1.62183l1.01855,1.07837l0.36328-0.34375
		l-1.0415-1.10278l3.28784-3.55811c0.38232,0.65027,0.72742,1.33789,1.03418,2.07397
		C32.13921,46.75069,30.10508,47.76972,27.58955,47.94142z"></path></svg>