<svg xmlns="http://www.w3.org/2000/svg" width="64" height="64" id="strawberry"><g fill="none" fill-rule="evenodd"><path fill="#E34361" d="M47.78 48.287C38.848 57.221 14.204 67.38 5.269 58.445c-8.933-8.933 1.225-33.577 10.16-42.51 8.933-8.936 20.516-6.034 29.45 2.901 8.934 8.934 11.836 20.518 2.903 29.451"></path><path fill="#BC395B" d="M49.234 24.114c2.16 6.3 1.172 12.841-4.355 18.369-8.935 8.933-33.577 19.093-42.512 10.158-.046-.046-.082-.096-.127-.143.506 2.347 1.472 4.39 3.028 5.946 8.936 8.936 33.578-1.222 42.513-10.157 7.256-7.256 6.703-16.26 1.453-24.173"></path><path fill="#454849" d="M27.684 12.334c-3.742 0-7.514 1.41-10.981 4.876-4.396 4.397-8.948 12.635-11.328 20.503-2.698 8.92-2.272 16.014 1.17 19.456 8.005 8.003 31.708-1.91 39.96-10.158 8.844-8.847 4.299-19.696-2.905-26.898-4.379-4.38-10.109-7.779-15.916-7.779M15.43 63.654c-4.596 0-8.65-1.144-11.438-3.932-4.48-4.478-5.215-12.666-2.073-23.055 2.537-8.386 7.452-17.23 12.23-22.01 8.842-8.842 21.403-7.699 32.007 2.903 10.601 10.602 11.74 23.165 2.902 32.004-6.619 6.619-21.885 14.09-33.628 14.09"></path><path fill="#454849" d="M24.223 36.598a2.047 2.047 0 0 1 2.893 2.893c-.798.798-3.747 2.452-4.545 1.652-.8-.798.854-3.747 1.652-4.545m-2.426-13.723a2.047 2.047 0 0 1 2.893 2.893c-.798.798-3.747 2.452-4.545 1.652-.8-.798.854-3.747 1.652-4.545m-8.022 13.503a2.047 2.047 0 0 1 2.893 2.893c-.798.798-3.747 2.452-4.545 1.652-.8-.798.854-3.747 1.652-4.545M39.2 43.182a2.047 2.047 0 0 0-2.893-2.893c-.798.798-2.452 3.747-1.652 4.545.798.8 3.747-.854 4.545-1.652M25.7 51.204a2.047 2.047 0 0 0-2.893-2.893c-.798.798-2.453 3.747-1.653 4.545.799.8 3.747-.854 4.546-1.652"></path><path fill="#3BB777" d="M45.086 29.05s-7.438 3.336-12.801 2.379c0 0-.314-6.19 5.118-10.062 0 0-8.278-3.38-10.97-13.909 0 0 5.63-.735 11.629 4.775 0 0 4.285-5.51 2.571-10.161 0 0 9.013 4.115 7.077 13.931 0 0 8.381.48 13.383 5.517 0 0-1.65 2.63-6.712 4.094 0 0 3.722 5.508 4.29 10.815 0 0-5.9.305-13.585-7.379"></path><path fill="#229857" d="M45.086 29.05s-7.438 3.336-12.801 2.379c0 0-.314-6.19 5.118-10.062 0 0-8.278-3.38-10.97-13.909 0 0 5.63-.735 11.629 4.775 0 0 4.285-5.51 2.571-10.161 0 0 9.013 4.115 7.077 13.931 0 0 8.381.48 13.383 5.517 0 0-1.65 2.63-6.712 4.094 0 0 3.722 5.508 4.29 10.815 0 0-5.9.305-13.585-7.379"></path><path fill="#3BB777" d="M57.523 31.841c-1.291-3.48-3.142-6.228-3.142-6.228 5.062-1.463 6.712-4.092 6.712-4.092-5.002-5.036-13.383-5.517-13.383-5.517 1.936-9.816-7.077-13.933-7.077-13.933 1.714 4.651-2.571 10.16-2.571 10.16-4.596-4.22-8.953-4.772-10.75-4.8a10.124 10.124 0 0 1-.349 1.801c3.108 9.134 10.44 12.136 10.44 12.136-2.397 1.708-3.673 3.866-4.354 5.747 5.587.918 13.222-2.5 13.222-2.5 4.666 4.664 8.691 6.5 11.252 7.226"></path><path fill="#454849" d="M45.085 27.244c.47 0 .932.184 1.279.53 4.243 4.243 7.87 5.857 10.05 6.473-1.093-3.984-3.5-7.579-3.53-7.624a1.803 1.803 0 0 1 .996-2.745c2.27-.657 3.73-1.547 4.603-2.244-4.504-3.42-10.806-3.823-10.877-3.829a1.802 1.802 0 0 1-1.667-2.15c1.14-5.786-2.08-9.228-4.254-10.839-.896 3.267-1.844 7.732-1.856 7.79a1.805 1.805 0 0 1-2.987.956c-3.083-2.832-5.996-3.83-7.908-4.172 2.893 7.606 8.883 10.194 9.16 10.31a1.81 1.81 0 0 1 .357 3.14c-3.029 2.156-3.96 5.159-4.242 6.958h.197c4.518.001 9.881-2.368 9.943-2.397a1.79 1.79 0 0 1 .736-.157m13.519 10.992c-1.048 0-6.774-.33-13.927-7.066-2.41.935-8.126 2.851-12.71 2.037a1.808 1.808 0 0 1-1.485-1.687c-.013-.254-.228-5.558 3.805-9.825-2.915-1.918-7.635-6.087-9.604-13.79a1.81 1.81 0 0 1 .253-1.46c.29-.428.75-.71 1.262-.777.231-.038 5.11-.606 10.73 3.334.546-2.377 1.344-5.656 2-7.529.17-.478.53-.865.996-1.063.468-.2.997-.195 1.46.018 3.299 1.506 8.925 6.264 8.36 13.997 2.962.466 8.679 1.847 12.63 5.822.592.596.695 1.522.25 2.232-.178.283-1.648 2.47-5.554 4.102 1.223 2.202 2.998 5.933 3.397 9.654a1.806 1.806 0 0 1-1.7 1.998c-.023 0-.077.003-.163.003"></path><path fill="#454849" d="M44.87 20.65a1.806 1.806 0 0 1-1.418-2.924c.718-.91 7.163-8.909 12.355-9.416a1.799 1.799 0 0 1 1.974 1.62 1.805 1.805 0 0 1-1.622 1.973c-2.775.273-7.528 5.089-9.87 8.06a1.808 1.808 0 0 1-1.42.687"></path><path fill="#FEFEFE" d="M11.91 31.244a1.356 1.356 0 0 1-1.277-1.808c.076-.215 1.909-5.304 5.15-8.115a1.355 1.355 0 0 1 1.775 2.046c-2.708 2.35-4.355 6.93-4.372 6.976a1.352 1.352 0 0 1-1.276.9M20.74 17.9c.746.632.84 1.75.206 2.496a1.77 1.77 0 1 1-2.701-2.29 1.771 1.771 0 0 1 2.495-.206"></path></g></svg>