<svg width="32" height="32" viewBox="0 0 32 32" fill="none" xmlns="http://www.w3.org/2000/svg">
<path d="M19.75 8.5V4.75C19.75 3.87815 19.75 3.44223 19.6542 3.08457C19.3941 2.114 18.636 1.3559 17.6654 1.09583C17.3078 1 16.8718 1 16 1C15.1282 1 14.6922 1 14.3346 1.09583C13.364 1.3559 12.6059 2.114 12.3458 3.08457C12.25 3.44223 12.25 3.87815 12.25 4.75V8.5C12.25 10.2678 12.25 11.1517 11.7008 11.7008C11.1517 12.25 10.2678 12.25 8.5 12.25L4.75 12.25C3.87815 12.25 3.44223 12.25 3.08457 12.3458C2.114 12.6059 1.3559 13.364 1.09583 14.3346C1 14.6922 1 15.1281 1 16C1 16.8718 1 17.3078 1.09583 17.6654C1.3559 18.636 2.114 19.3941 3.08457 19.6542C3.44223 19.75 3.87815 19.75 4.75 19.75H8.5C10.2678 19.75 11.1517 19.75 11.7008 20.2992C12.25 20.8484 12.25 21.7322 12.25 23.5V27.25C12.25 28.1218 12.25 28.5578 12.3458 28.9154C12.6059 29.886 13.364 30.6441 14.3346 30.9042C14.6922 31 15.1282 31 16 31C16.8718 31 17.3078 31 17.6654 30.9042C18.636 30.6441 19.3941 29.886 19.6542 28.9154C19.75 28.5578 19.75 28.1218 19.75 27.25V23.5C19.75 21.7322 19.75 20.8484 20.2992 20.2992C20.8484 19.75 21.7322 19.75 23.5 19.75H27.25C28.1218 19.75 28.5578 19.75 28.9154 19.6542C29.886 19.3941 30.6441 18.636 30.9042 17.6654C31 17.3078 31 16.8718 31 16C31 15.1282 31 14.6922 30.9042 14.3346C30.6441 13.364 29.886 12.6059 28.9154 12.3458C28.5578 12.25 28.1218 12.25 27.25 12.25H23.5C21.7322 12.25 20.8484 12.25 20.2992 11.7008C19.75 11.1517 19.75 10.2678 19.75 8.5Z" fill="url(#paint0_linear_484_14408)"/>
<path d="M19.75 8.5V4.75C19.75 3.87815 19.75 3.44223 19.6542 3.08457C19.3941 2.114 18.636 1.3559 17.6654 1.09583C17.3078 1 16.8718 1 16 1C15.1282 1 14.6922 1 14.3346 1.09583C13.364 1.3559 12.6059 2.114 12.3458 3.08457C12.25 3.44223 12.25 3.87815 12.25 4.75V8.5C12.25 10.2678 12.25 11.1517 11.7008 11.7008C11.1517 12.25 10.2678 12.25 8.5 12.25L4.75 12.25C3.87815 12.25 3.44223 12.25 3.08457 12.3458C2.114 12.6059 1.3559 13.364 1.09583 14.3346C1 14.6922 1 15.1282 1 16C1 16.8718 1 17.3078 1.09583 17.6654C1.3559 18.636 2.114 19.3941 3.08457 19.6542C3.44223 19.75 3.87815 19.75 4.75 19.75H8.5C10.2678 19.75 11.1517 19.75 11.7008 20.2992C12.25 20.8484 12.25 21.7322 12.25 23.5V27.25C12.25 28.1218 12.25 28.5578 12.3458 28.9154C12.6059 29.886 13.364 30.6441 14.3346 30.9042C14.6922 31 15.1282 31 16 31C16.8718 31 17.3078 31 17.6654 30.9042C18.636 30.6441 19.3941 29.886 19.6542 28.9154C19.75 28.5578 19.75 28.1218 19.75 27.25V23.5C19.75 21.7322 19.75 20.8484 20.2992 20.2992C20.8484 19.75 21.7322 19.75 23.5 19.75H27.25C28.1219 19.75 28.5578 19.75 28.9154 19.6542C29.886 19.3941 30.6441 18.636 30.9042 17.6654C31 17.3078 31 16.8718 31 16C31 15.1282 31 14.6922 30.9042 14.3346C30.6441 13.364 29.886 12.6059 28.9154 12.3458C28.5578 12.25 28.1219 12.25 27.25 12.25H23.5C21.7322 12.25 20.8484 12.25 20.2992 11.7008C19.75 11.1517 19.75 10.2678 19.75 8.5Z" stroke="#332701" stroke-width="1.5" stroke-linecap="round" stroke-linejoin="round"/>
<defs>
<linearGradient id="paint0_linear_484_14408" x1="16" y1="1" x2="16" y2="31" gradientUnits="userSpaceOnUse">
<stop stop-color="#EDB50E"/>
<stop offset="1" stop-color="#FBCD42"/>
</linearGradient>
</defs>
</svg>
