<svg width="30" height="30" viewBox="0 0 30 30" fill="none" xmlns="http://www.w3.org/2000/svg">
<path d="M18.75 7.5V3.75C18.75 2.87815 18.75 2.44223 18.6542 2.08457C18.3941 1.114 17.636 0.355897 16.6654 0.0958336C16.3078 0 15.8718 0 15 0C14.1282 0 13.6922 0 13.3346 0.0958336C12.364 0.355897 11.6059 1.114 11.3458 2.08457C11.25 2.44223 11.25 2.87815 11.25 3.75V7.5C11.25 9.26777 11.25 10.1517 10.7008 10.7008C10.1517 11.25 9.26777 11.25 7.5 11.25L3.75 11.25C2.87815 11.25 2.44223 11.25 2.08457 11.3458C1.114 11.6059 0.355898 12.364 0.0958339 13.3346C0 13.6922 0 14.1281 0 15C0 15.8718 0 16.3078 0.0958338 16.6654C0.355898 17.636 1.114 18.3941 2.08457 18.6542C2.44223 18.75 2.87815 18.75 3.75 18.75H7.5C9.26777 18.75 10.1517 18.75 10.7008 19.2992C11.25 19.8484 11.25 20.7322 11.25 22.5V26.25C11.25 27.1218 11.25 27.5578 11.3458 27.9154C11.6059 28.886 12.364 29.6441 13.3346 29.9042C13.6922 30 14.1282 30 15 30C15.8718 30 16.3078 30 16.6654 29.9042C17.636 29.6441 18.3941 28.886 18.6542 27.9154C18.75 27.5578 18.75 27.1218 18.75 26.25V22.5C18.75 20.7322 18.75 19.8484 19.2992 19.2992C19.8484 18.75 20.7322 18.75 22.5 18.75H26.25C27.1218 18.75 27.5578 18.75 27.9154 18.6542C28.886 18.3941 29.6441 17.636 29.9042 16.6654C30 16.3078 30 15.8718 30 15C30 14.1282 30 13.6922 29.9042 13.3346C29.6441 12.364 28.886 11.6059 27.9154 11.3458C27.5578 11.25 27.1218 11.25 26.25 11.25H22.5C20.7322 11.25 19.8484 11.25 19.2992 10.7008C18.75 10.1517 18.75 9.26777 18.75 7.5Z" fill="#332701"/>
</svg>
