<svg width="32" height="32" viewBox="0 0 32 32" fill="none" xmlns="http://www.w3.org/2000/svg">
<path d="M26.5799 16.8347C26.2408 18.4502 24.4359 19.6106 20.8262 21.9312C16.9002 24.4551 14.9372 25.7171 13.3472 25.2309C12.8087 25.0662 12.3127 24.7767 11.8962 24.3839C10.6665 23.224 10.6665 20.8161 10.6665 16.0003C10.6665 11.1845 10.6665 8.77665 11.8962 7.6168C12.3127 7.22397 12.8087 6.93442 13.3472 6.76975C14.9372 6.28356 16.9002 7.54553 20.8262 10.0695C24.4359 12.3901 26.2408 13.5504 26.5799 15.166C26.6954 15.7157 26.6954 16.285 26.5799 16.8347Z" fill="url(#paint0_linear_388_20164)"/>
<path d="M26.5799 16.8347C26.2408 18.4502 24.4359 19.6106 20.8262 21.9312C16.9002 24.4551 14.9372 25.7171 13.3472 25.2309C12.8087 25.0662 12.3127 24.7767 11.8962 24.3839C10.6665 23.224 10.6665 20.8161 10.6665 16.0003C10.6665 11.1845 10.6665 8.77665 11.8962 7.6168C12.3127 7.22397 12.8087 6.93442 13.3472 6.76975C14.9372 6.28356 16.9002 7.54553 20.8262 10.0695C24.4359 12.3901 26.2408 13.5504 26.5799 15.166C26.6954 15.7157 26.6954 16.285 26.5799 16.8347Z" stroke="#141B34" stroke-width="1.5" stroke-linejoin="round"/>
<path d="M5.33325 6.66699L5.33325 25.3337" stroke="#332701" stroke-width="1.5" stroke-linecap="round"/>
<defs>
<linearGradient id="paint0_linear_388_20164" x1="18.6665" y1="6.66699" x2="18.6665" y2="25.3337" gradientUnits="userSpaceOnUse">
<stop stop-color="#EDB50E"/>
<stop offset="1" stop-color="#FBCD42"/>
</linearGradient>
</defs>
</svg>
