<svg width="64" height="64" viewBox="0 0 64 64" fill="none" xmlns="http://www.w3.org/2000/svg">
<circle cx="31.9999" cy="31.9997" r="26.6667" fill="url(#paint0_linear_388_32709)"/>
<path d="M41.2082 33.0521C40.8043 34.7234 38.8952 35.9044 35.077 38.2665C31.3859 40.5498 29.5403 41.6915 28.0531 41.2326C27.4382 41.0429 26.8779 40.6825 26.4261 40.1861C25.3333 38.9855 25.3333 36.6568 25.3333 31.9993C25.3333 27.3419 25.3333 25.0132 26.4261 23.8125C26.8779 23.3162 27.4382 22.9558 28.0531 22.7661C29.5403 22.3072 31.3859 23.4489 35.077 25.7322C38.8952 28.0942 40.8043 29.2753 41.2082 30.9466C41.3749 31.6365 41.3749 32.3622 41.2082 33.0521Z" fill="#FFFAEB"/>
<circle cx="31.9999" cy="31.9997" r="26.6667" stroke="#332701" stroke-width="1.5"/>
<path d="M41.2082 33.0521C40.8043 34.7234 38.8952 35.9044 35.077 38.2665C31.3859 40.5498 29.5403 41.6915 28.0531 41.2326C27.4382 41.0429 26.8779 40.6825 26.4261 40.1861C25.3333 38.9855 25.3333 36.6568 25.3333 31.9993C25.3333 27.3419 25.3333 25.0132 26.4261 23.8125C26.8779 23.3162 27.4382 22.9558 28.0531 22.7661C29.5403 22.3072 31.3859 23.4489 35.077 25.7322C38.8952 28.0942 40.8043 29.2753 41.2082 30.9466C41.3749 31.6365 41.3749 32.3622 41.2082 33.0521Z" stroke="#332701" stroke-width="1.5" stroke-linejoin="round"/>
<defs>
<linearGradient id="paint0_linear_388_32709" x1="31.9999" y1="5.33301" x2="31.9999" y2="58.6663" gradientUnits="userSpaceOnUse">
<stop stop-color="#EDB50E"/>
<stop offset="1" stop-color="#FBCD42"/>
</linearGradient>
</defs>
</svg>
