<svg width="32" height="32" viewBox="0 0 32 32" fill="none" xmlns="http://www.w3.org/2000/svg">
<path d="M5.41981 16.8347C5.75899 18.4502 7.56386 19.6106 11.1736 21.9312C15.0995 24.4551 17.0625 25.7171 18.6526 25.2309C19.1911 25.0662 19.6871 24.7767 20.1036 24.3839C21.3333 23.224 21.3333 20.8161 21.3333 16.0003C21.3333 11.1845 21.3333 8.77665 20.1036 7.6168C19.6871 7.22397 19.1911 6.93442 18.6526 6.76975C17.0625 6.28356 15.0996 7.54553 11.1736 10.0695C7.56386 12.3901 5.75899 13.5504 5.41981 15.166C5.3044 15.7157 5.3044 16.285 5.41981 16.8347Z" fill="#D4D7E0"/>
<path d="M5.41981 16.8347C5.75899 18.4502 7.56386 19.6106 11.1736 21.9312C15.0995 24.4551 17.0625 25.7171 18.6526 25.2309C19.1911 25.0662 19.6871 24.7767 20.1036 24.3839C21.3333 23.224 21.3333 20.8161 21.3333 16.0003C21.3333 11.1845 21.3333 8.77665 20.1036 7.6168C19.6871 7.22397 19.1911 6.93442 18.6526 6.76975C17.0625 6.28356 15.0996 7.54553 11.1736 10.0695C7.56386 12.3901 5.75899 13.5504 5.41981 15.166C5.3044 15.7157 5.3044 16.285 5.41981 16.8347Z" fill="url(#paint0_linear_388_20150)" stroke="#141B34" stroke-width="1.5" stroke-linejoin="round"/>
<path d="M26.6665 6.66699V25.3337" stroke="#332701" stroke-width="1.5" stroke-linecap="round"/>
<defs>
<linearGradient id="paint0_linear_388_20150" x1="13.3333" y1="6.66699" x2="13.3333" y2="25.3337" gradientUnits="userSpaceOnUse">
<stop stop-color="#EDB50E"/>
<stop offset="1" stop-color="#FBCD42"/>
</linearGradient>
</defs>
</svg>
