<svg width="64" height="64" viewBox="0 0 64 64" fill="none" xmlns="http://www.w3.org/2000/svg">
<circle cx="31.9999" cy="31.9997" r="26.6667" fill="url(#paint0_linear_388_20155)"/>
<path d="M22.6665 26.167C22.6665 24.5171 22.6665 23.6921 23.1791 23.1796C23.6916 22.667 24.5166 22.667 26.1665 22.667C27.8164 22.667 28.6414 22.667 29.1539 23.1796C29.6665 23.6921 29.6665 24.5171 29.6665 26.167V37.8337C29.6665 39.4836 29.6665 40.3085 29.1539 40.8211C28.6414 41.3337 27.8164 41.3337 26.1665 41.3337C24.5166 41.3337 23.6916 41.3337 23.1791 40.8211C22.6665 40.3085 22.6665 39.4836 22.6665 37.8337V26.167Z" fill="#FFFAEB"/>
<path d="M22.6665 26.167C22.6665 24.5171 22.6665 23.6921 23.1791 23.1796C23.6916 22.667 24.5166 22.667 26.1665 22.667C27.8164 22.667 28.6414 22.667 29.1539 23.1796C29.6665 23.6921 29.6665 24.5171 29.6665 26.167V37.8337C29.6665 39.4836 29.6665 40.3085 29.1539 40.8211C28.6414 41.3337 27.8164 41.3337 26.1665 41.3337C24.5166 41.3337 23.6916 41.3337 23.1791 40.8211C22.6665 40.3085 22.6665 39.4836 22.6665 37.8337V26.167Z" stroke="#332701" stroke-width="1.5"/>
<path d="M34.3333 26.167C34.3333 24.5171 34.3333 23.6921 34.8458 23.1796C35.3584 22.667 36.1833 22.667 37.8333 22.667C39.4832 22.667 40.3081 22.667 40.8207 23.1796C41.3333 23.6921 41.3333 24.5171 41.3333 26.167V37.8337C41.3333 39.4836 41.3333 40.3085 40.8207 40.8211C40.3081 41.3337 39.4832 41.3337 37.8333 41.3337C36.1833 41.3337 35.3584 41.3337 34.8458 40.8211C34.3333 40.3085 34.3333 39.4836 34.3333 37.8337V26.167Z" fill="#FFFAEB"/>
<path d="M34.3333 26.167C34.3333 24.5171 34.3333 23.6921 34.8458 23.1796C35.3584 22.667 36.1833 22.667 37.8333 22.667C39.4832 22.667 40.3081 22.667 40.8207 23.1796C41.3333 23.6921 41.3333 24.5171 41.3333 26.167V37.8337C41.3333 39.4836 41.3333 40.3085 40.8207 40.8211C40.3081 41.3337 39.4832 41.3337 37.8333 41.3337C36.1833 41.3337 35.3584 41.3337 34.8458 40.8211C34.3333 40.3085 34.3333 39.4836 34.3333 37.8337V26.167Z" stroke="#332701" stroke-width="1.5"/>
<defs>
<linearGradient id="paint0_linear_388_20155" x1="31.9999" y1="5.33301" x2="31.9999" y2="58.6663" gradientUnits="userSpaceOnUse">
<stop stop-color="#EDB50E"/>
<stop offset="1" stop-color="#FBCD42"/>
</linearGradient>
</defs>
</svg>
