<svg width="40" height="40" viewBox="0 0 40 40" fill="none" xmlns="http://www.w3.org/2000/svg">
<path d="M9.39354 30.6064C8.70855 29.9214 8.36606 29.579 8.15282 29.2302C7.57416 28.2837 7.5146 27.1521 7.99657 26.2614C8.17418 25.9332 8.48243 25.625 9.09892 25.0085L25.0088 9.0986C25.6253 8.48211 25.9336 8.17387 26.2617 7.99626C27.1524 7.51429 28.2841 7.57385 29.2305 8.15251C29.5793 8.36575 29.9218 8.70824 30.6067 9.39323C31.2917 10.0782 31.6342 10.4207 31.8475 10.7695C32.4261 11.7159 32.4857 12.8476 32.0037 13.7382C31.8261 14.0664 31.5179 14.3747 30.9014 14.9912L14.9915 30.9011C14.375 31.5176 14.0667 31.8258 13.7385 32.0034C12.8479 32.4854 11.7162 32.4258 10.7698 31.8472C10.421 31.6339 10.0785 31.2914 9.39354 30.6064Z" fill="url(#paint0_linear_484_30257)"/>
<path d="M9.39354 30.6064C8.70855 29.9214 8.36606 29.579 8.15282 29.2302C7.57416 28.2837 7.5146 27.1521 7.99657 26.2614C8.17418 25.9332 8.48243 25.625 9.09892 25.0085L25.0088 9.0986C25.6253 8.48211 25.9336 8.17387 26.2617 7.99626C27.1524 7.51429 28.2841 7.57385 29.2305 8.15251C29.5793 8.36575 29.9218 8.70824 30.6067 9.39323C31.2917 10.0782 31.6342 10.4207 31.8475 10.7695C32.4261 11.7159 32.4857 12.8476 32.0037 13.7382C31.8261 14.0664 31.5179 14.3747 30.9014 14.9912L14.9915 30.9011C14.375 31.5176 14.0667 31.8258 13.7385 32.0034C12.8479 32.4854 11.7162 32.4258 10.7698 31.8472C10.421 31.6339 10.0785 31.2914 9.39354 30.6064Z" stroke="#332701" stroke-width="1.5"/>
<circle cx="10" cy="11" r="3.25" fill="url(#paint1_linear_484_30257)" stroke="#332701" stroke-width="1.5"/>
<circle cx="30" cy="28" r="3.25" fill="url(#paint2_linear_484_30257)" stroke="#332701" stroke-width="1.5"/>
<defs>
<linearGradient id="paint0_linear_484_30257" x1="17.0539" y1="17.0536" x2="22.9464" y2="22.9461" gradientUnits="userSpaceOnUse">
<stop stop-color="#EDB50E"/>
<stop offset="1" stop-color="#FBCD42"/>
</linearGradient>
<linearGradient id="paint1_linear_484_30257" x1="10" y1="7" x2="10" y2="15" gradientUnits="userSpaceOnUse">
<stop stop-color="#EDB50E"/>
<stop offset="1" stop-color="#FBCD42"/>
</linearGradient>
<linearGradient id="paint2_linear_484_30257" x1="30" y1="24" x2="30" y2="32" gradientUnits="userSpaceOnUse">
<stop stop-color="#EDB50E"/>
<stop offset="1" stop-color="#FBCD42"/>
</linearGradient>
</defs>
</svg>
