<svg width="30" height="30" viewBox="0 0 30 30" fill="none" xmlns="http://www.w3.org/2000/svg">
<path d="M23.7705 12.0768L26.694 9.15322C27.3738 8.47351 27.7136 8.13366 27.9177 7.78011C28.4717 6.82069 28.4717 5.63864 27.9177 4.67922C27.7136 4.32567 27.3738 3.98582 26.694 3.30611C26.0143 2.62641 25.6745 2.28655 25.3209 2.08243C24.3615 1.52851 23.1795 1.52851 22.22 2.08243C21.8665 2.28655 21.5266 2.62641 20.8469 3.30611L17.9234 6.22967C16.5452 7.60784 15.8561 8.29693 14.9998 8.29693C14.1435 8.29693 13.4545 7.60784 12.0763 6.22967L9.15273 3.30611C8.47303 2.62641 8.13317 2.28655 7.77963 2.08243C6.8202 1.52851 5.63815 1.52851 4.67873 2.08243C4.32518 2.28655 3.98533 2.62641 3.30562 3.30611C2.62592 3.98582 2.28606 4.32567 2.08195 4.67922C1.52802 5.63864 1.52802 6.82069 2.08195 7.78011C2.28607 8.13366 2.62592 8.47351 3.30562 9.15322L6.22918 12.0768C7.60735 13.4549 8.29644 14.144 8.29644 15.0003C8.29644 15.8566 7.60735 16.5457 6.22918 17.9239L3.30562 20.8474C2.62592 21.5271 2.28607 21.867 2.08195 22.2205C1.52802 23.18 1.52802 24.362 2.08195 25.3214C2.28607 25.675 2.62592 26.0148 3.30562 26.6945C3.98533 27.3742 4.32518 27.7141 4.67873 27.9182C5.63815 28.4721 6.8202 28.4721 7.77963 27.9182C8.13317 27.7141 8.47302 27.3742 9.15273 26.6945L12.0763 23.771C13.4545 22.3928 14.1435 21.7037 14.9998 21.7037C15.8561 21.7037 16.5452 22.3928 17.9234 23.771L20.8469 26.6945C21.5266 27.3742 21.8665 27.7141 22.22 27.9182C23.1795 28.4721 24.3615 28.4721 25.3209 27.9182C25.6745 27.7141 26.0143 27.3742 26.694 26.6945C27.3738 26.0148 27.7136 25.675 27.9177 25.3214C28.4717 24.362 28.4716 23.18 27.9177 22.2205C27.7136 21.867 27.3738 21.5271 26.694 20.8474L23.7705 17.9239C22.3923 16.5457 21.7032 15.8566 21.7032 15.0003C21.7032 14.144 22.3923 13.4549 23.7705 12.0768Z" fill="url(#paint0_linear_484_6683)"/>
<path d="M23.7705 12.0768L26.694 9.15322C27.3738 8.47351 27.7136 8.13366 27.9177 7.78011C28.4717 6.82069 28.4717 5.63864 27.9177 4.67922C27.7136 4.32567 27.3738 3.98582 26.694 3.30611C26.0143 2.62641 25.6745 2.28655 25.3209 2.08243C24.3615 1.52851 23.1795 1.52851 22.22 2.08243C21.8665 2.28655 21.5266 2.62641 20.8469 3.30611L17.9234 6.22967C16.5452 7.60784 15.8561 8.29693 14.9998 8.29693C14.1435 8.29693 13.4545 7.60784 12.0763 6.22967L9.15273 3.30611C8.47303 2.62641 8.13317 2.28655 7.77963 2.08243C6.8202 1.52851 5.63815 1.52851 4.67873 2.08243C4.32518 2.28655 3.98533 2.62641 3.30562 3.30611C2.62592 3.98582 2.28606 4.32567 2.08195 4.67922C1.52802 5.63864 1.52802 6.82069 2.08195 7.78011C2.28607 8.13366 2.62592 8.47351 3.30562 9.15322L6.22918 12.0768C7.60735 13.4549 8.29644 14.144 8.29644 15.0003C8.29644 15.8566 7.60735 16.5457 6.22918 17.9239L3.30562 20.8474C2.62592 21.5271 2.28607 21.867 2.08195 22.2205C1.52802 23.18 1.52802 24.362 2.08195 25.3214C2.28607 25.675 2.62592 26.0148 3.30562 26.6945C3.98533 27.3742 4.32518 27.7141 4.67873 27.9182C5.63815 28.4721 6.8202 28.4721 7.77963 27.9182C8.13317 27.7141 8.47302 27.3742 9.15273 26.6945L12.0763 23.771C13.4545 22.3928 14.1435 21.7037 14.9998 21.7037C15.8561 21.7037 16.5452 22.3928 17.9234 23.771L20.8469 26.6945C21.5266 27.3742 21.8665 27.7141 22.22 27.9182C23.1795 28.4721 24.3615 28.4721 25.3209 27.9182C25.6745 27.7141 26.0143 27.3742 26.694 26.6945C27.3738 26.0148 27.7136 25.675 27.9177 25.3214C28.4717 24.362 28.4716 23.18 27.9177 22.2205C27.7136 21.867 27.3738 21.5271 26.694 20.8474L23.7705 17.9239C22.3923 16.5457 21.7032 15.8566 21.7032 15.0003C21.7032 14.144 22.3923 13.4549 23.7705 12.0768Z" stroke="#332701" stroke-width="1.5" stroke-linecap="round" stroke-linejoin="round"/>
<defs>
<linearGradient id="paint0_linear_484_6683" x1="14.9998" y1="1.66699" x2="14.9998" y2="28.3337" gradientUnits="userSpaceOnUse">
<stop stop-color="#EDB50E"/>
<stop offset="1" stop-color="#FBCD42"/>
</linearGradient>
</defs>
</svg>
