<svg width="28" height="28" viewBox="0 0 28 28" fill="none" xmlns="http://www.w3.org/2000/svg">
<path d="M22.7705 11.0768L25.694 8.15322C26.3738 7.47351 26.7136 7.13366 26.9177 6.78011C27.4717 5.82069 27.4717 4.63864 26.9177 3.67922C26.7136 3.32567 26.3738 2.98582 25.694 2.30611C25.0143 1.62641 24.6745 1.28655 24.3209 1.08243C23.3615 0.528512 22.1795 0.528512 21.22 1.08243C20.8665 1.28655 20.5266 1.62641 19.8469 2.30611L16.9234 5.22967C15.5452 6.60784 14.8561 7.29693 13.9998 7.29693C13.1435 7.29693 12.4545 6.60784 11.0763 5.22967L8.15273 2.30611C7.47303 1.62641 7.13317 1.28655 6.77963 1.08243C5.8202 0.528512 4.63815 0.528512 3.67873 1.08243C3.32518 1.28655 2.98533 1.62641 2.30562 2.30611C1.62592 2.98582 1.28606 3.32567 1.08195 3.67922C0.528024 4.63864 0.528023 5.82069 1.08195 6.78011C1.28607 7.13366 1.62592 7.47351 2.30562 8.15322L5.22918 11.0768C6.60735 12.4549 7.29644 13.144 7.29644 14.0003C7.29644 14.8566 6.60735 15.5457 5.22918 16.9239L2.30562 19.8474C1.62592 20.5271 1.28607 20.867 1.08195 21.2205C0.528024 22.18 0.528023 23.362 1.08195 24.3214C1.28607 24.675 1.62592 25.0148 2.30562 25.6945C2.98533 26.3742 3.32518 26.7141 3.67873 26.9182C4.63815 27.4721 5.8202 27.4721 6.77963 26.9182C7.13317 26.7141 7.47302 26.3742 8.15273 25.6945L11.0763 22.771C12.4545 21.3928 13.1435 20.7037 13.9998 20.7037C14.8561 20.7037 15.5452 21.3928 16.9234 22.771L19.8469 25.6945C20.5266 26.3742 20.8665 26.7141 21.22 26.9182C22.1795 27.4721 23.3615 27.4721 24.3209 26.9182C24.6745 26.7141 25.0143 26.3742 25.694 25.6945C26.3738 25.0148 26.7136 24.675 26.9177 24.3214C27.4717 23.362 27.4716 22.18 26.9177 21.2205C26.7136 20.867 26.3738 20.5271 25.694 19.8474L22.7705 16.9239C21.3923 15.5457 20.7032 14.8566 20.7032 14.0003C20.7032 13.144 21.3923 12.4549 22.7705 11.0768Z" fill="#332701"/>
</svg>
