<svg width="24" height="22" viewBox="0 0 24 22" fill="none" xmlns="http://www.w3.org/2000/svg">
<path d="M22.5799 11.8342C22.2408 13.4498 20.4359 14.6101 16.8262 16.9307C12.9002 19.4546 10.9372 20.7166 9.34719 20.2304C8.80867 20.0657 8.31267 19.7762 7.89619 19.3834C6.6665 18.2235 6.6665 15.8156 6.6665 10.9998C6.6665 6.18405 6.6665 3.77616 7.89619 2.61631C8.31267 2.22348 8.80867 1.93393 9.34719 1.76926C10.9372 1.28307 12.9002 2.54504 16.8262 5.06898C20.4359 7.38961 22.2408 8.54992 22.5799 10.1655C22.6954 10.7152 22.6954 11.2845 22.5799 11.8342Z" fill="url(#paint0_linear_153_20718)"/>
<path d="M22.5799 11.8342C22.2408 13.4498 20.4359 14.6101 16.8262 16.9307C12.9002 19.4546 10.9372 20.7166 9.34719 20.2304C8.80867 20.0657 8.31267 19.7762 7.89619 19.3834C6.6665 18.2235 6.6665 15.8156 6.6665 10.9998C6.6665 6.18405 6.6665 3.77616 7.89619 2.61631C8.31267 2.22348 8.80867 1.93393 9.34719 1.76926C10.9372 1.28307 12.9002 2.54504 16.8262 5.06898C20.4359 7.38961 22.2408 8.54992 22.5799 10.1655C22.6954 10.7152 22.6954 11.2845 22.5799 11.8342Z" stroke="#332701" stroke-width="1.5" stroke-linejoin="round"/>
<path d="M1.33325 1.6665L1.33325 20.3332" stroke="#332701" stroke-width="1.5" stroke-linecap="round"/>
<defs>
<linearGradient id="paint0_linear_153_20718" x1="14.6665" y1="1.6665" x2="14.6665" y2="20.3332" gradientUnits="userSpaceOnUse">
<stop stop-color="#EDB50E"/>
<stop offset="1" stop-color="#FBCD42"/>
</linearGradient>
</defs>
</svg>
