<svg width="18" height="18" viewBox="0 0 18 18" fill="none" xmlns="http://www.w3.org/2000/svg">
<path d="M14.2624 7.24587L16.0165 5.49174C16.4244 5.08391 16.6283 4.88 16.7507 4.66787C17.0831 4.09222 17.0831 3.38299 16.7507 2.80734C16.6283 2.59521 16.4244 2.3913 16.0165 1.98347C15.6087 1.57565 15.4048 1.37174 15.1927 1.24927C14.617 0.916912 13.9078 0.916912 13.3321 1.24926C13.12 1.37174 12.9161 1.57565 12.5083 1.98347L10.7541 3.7376C9.92723 4.56451 9.51377 4.97796 9 4.97796C8.48623 4.97796 8.07277 4.56451 7.24587 3.7376L5.49174 1.98347C5.08391 1.57565 4.88 1.37174 4.66787 1.24926C4.09222 0.916912 3.38299 0.916912 2.80734 1.24926C2.59521 1.37174 2.3913 1.57565 1.98347 1.98347C1.57565 2.3913 1.37174 2.59521 1.24927 2.80734C0.916912 3.38299 0.916911 4.09222 1.24926 4.66787C1.37174 4.88 1.57565 5.08391 1.98347 5.49174L3.7376 7.24587C4.56451 8.07277 4.97796 8.48623 4.97796 9C4.97796 9.51377 4.56451 9.92723 3.7376 10.7541L1.98347 12.5083C1.57565 12.9161 1.37174 13.12 1.24926 13.3321C0.916912 13.9078 0.916912 14.617 1.24926 15.1927C1.37174 15.4048 1.57565 15.6087 1.98347 16.0165C2.3913 16.4244 2.59521 16.6283 2.80733 16.7507C3.38299 17.0831 4.09222 17.0831 4.66787 16.7507C4.88 16.6283 5.08391 16.4244 5.49174 16.0165L7.24587 14.2624C8.07277 13.4355 8.48623 13.022 9 13.022C9.51377 13.022 9.92723 13.4355 10.7541 14.2624L12.5083 16.0165C12.9161 16.4244 13.12 16.6283 13.3321 16.7507C13.9078 17.0831 14.617 17.0831 15.1927 16.7507C15.4048 16.6283 15.6087 16.4244 16.0165 16.0165C16.4244 15.6087 16.6283 15.4048 16.7507 15.1927C17.0831 14.617 17.0831 13.9078 16.7507 13.3321C16.6283 13.12 16.4244 12.9161 16.0165 12.5083L14.2624 10.7541C13.4355 9.92723 13.022 9.51377 13.022 9C13.022 8.48623 13.4355 8.07277 14.2624 7.24587Z" fill="url(#paint0_linear_317_24287)"/>
<path d="M14.2624 7.24587L16.0165 5.49174C16.4244 5.08391 16.6283 4.88 16.7507 4.66787C17.0831 4.09222 17.0831 3.38299 16.7507 2.80733C16.6283 2.59521 16.4244 2.3913 16.0165 1.98347C15.6087 1.57565 15.4048 1.37174 15.1927 1.24927C14.617 0.916912 13.9078 0.916912 13.3321 1.24926C13.12 1.37174 12.9161 1.57565 12.5083 1.98347L10.7541 3.7376C9.92723 4.56451 9.51377 4.97796 9 4.97796C8.48623 4.97796 8.07277 4.56451 7.24587 3.7376L5.49174 1.98347C5.08391 1.57565 4.88 1.37174 4.66787 1.24926C4.09222 0.916912 3.38299 0.916912 2.80734 1.24926C2.59521 1.37174 2.3913 1.57565 1.98347 1.98347C1.57565 2.3913 1.37174 2.59521 1.24927 2.80734C0.916912 3.38299 0.916911 4.09222 1.24926 4.66787C1.37174 4.88 1.57565 5.08391 1.98347 5.49174L3.7376 7.24587C4.56451 8.07277 4.97796 8.48623 4.97796 9C4.97796 9.51377 4.56451 9.92723 3.7376 10.7541L1.98347 12.5083C1.57565 12.9161 1.37174 13.12 1.24926 13.3321C0.916912 13.9078 0.916912 14.617 1.24926 15.1927C1.37174 15.4048 1.57565 15.6087 1.98347 16.0165C2.3913 16.4244 2.59521 16.6283 2.80733 16.7507C3.38299 17.0831 4.09222 17.0831 4.66787 16.7507C4.88 16.6283 5.08391 16.4244 5.49174 16.0165L7.24587 14.2624C8.07277 13.4355 8.48623 13.022 9 13.022C9.51377 13.022 9.92723 13.4355 10.7541 14.2624L12.5083 16.0165C12.9161 16.4244 13.12 16.6283 13.3321 16.7507C13.9078 17.0831 14.617 17.0831 15.1927 16.7507C15.4048 16.6283 15.6087 16.4244 16.0165 16.0165C16.4244 15.6087 16.6283 15.4048 16.7507 15.1927C17.0831 14.617 17.0831 13.9078 16.7507 13.3321C16.6283 13.12 16.4244 12.9161 16.0165 12.5083L14.2624 10.7541C13.4355 9.92723 13.022 9.51377 13.022 9C13.022 8.48623 13.4355 8.07277 14.2624 7.24587Z" stroke="#332701" stroke-width="1.5" stroke-linecap="round" stroke-linejoin="round"/>
<defs>
<linearGradient id="paint0_linear_317_24287" x1="9" y1="1" x2="9" y2="17" gradientUnits="userSpaceOnUse">
<stop stop-color="#EDB50E"/>
<stop offset="1" stop-color="#FBCD42"/>
</linearGradient>
</defs>
</svg>
