<svg width="24" height="22" viewBox="0 0 24 22" fill="none" xmlns="http://www.w3.org/2000/svg">
<path d="M1.41981 11.8342C1.75899 13.4498 3.56386 14.6101 7.17358 16.9307C11.0995 19.4546 13.0625 20.7166 14.6526 20.2304C15.1911 20.0657 15.6871 19.7762 16.1036 19.3834C17.3333 18.2235 17.3333 15.8156 17.3333 10.9998C17.3333 6.18405 17.3333 3.77616 16.1036 2.61631C15.6871 2.22348 15.1911 1.93393 14.6526 1.76926C13.0625 1.28307 11.0996 2.54504 7.17358 5.06898C3.56386 7.38961 1.75899 8.54992 1.41981 10.1655C1.3044 10.7152 1.3044 11.2845 1.41981 11.8342Z" fill="#D4D7E0"/>
<path d="M1.41981 11.8342C1.75899 13.4498 3.56386 14.6101 7.17358 16.9307C11.0995 19.4546 13.0625 20.7166 14.6526 20.2304C15.1911 20.0657 15.6871 19.7762 16.1036 19.3834C17.3333 18.2235 17.3333 15.8156 17.3333 10.9998C17.3333 6.18405 17.3333 3.77616 16.1036 2.61631C15.6871 2.22348 15.1911 1.93393 14.6526 1.76926C13.0625 1.28307 11.0996 2.54504 7.17358 5.06898C3.56386 7.38961 1.75899 8.54992 1.41981 10.1655C1.3044 10.7152 1.3044 11.2845 1.41981 11.8342Z" fill="url(#paint0_linear_182_22397)" stroke="#141B34" stroke-width="1.5" stroke-linejoin="round"/>
<path d="M22.6665 1.6665V20.3332" stroke="#332701" stroke-width="1.5" stroke-linecap="round"/>
<defs>
<linearGradient id="paint0_linear_182_22397" x1="9.33325" y1="1.6665" x2="9.33325" y2="20.3332" gradientUnits="userSpaceOnUse">
<stop stop-color="#EDB50E"/>
<stop offset="1" stop-color="#FBCD42"/>
</linearGradient>
</defs>
</svg>
