<svg width="22" height="22" viewBox="0 0 22 22" fill="none" xmlns="http://www.w3.org/2000/svg">
<circle cx="11" cy="11.0002" r="10" fill="url(#paint0_linear_153_3103)"/>
<path d="M10.0809 12.1523L7 6.00024L12.4196 10.2799C13.1901 10.8883 13.1941 12.0474 12.4277 12.661C11.6614 13.2745 10.5189 13.0269 10.0809 12.1523Z" fill="white" stroke="#332701" stroke-width="1.5" stroke-linecap="round" stroke-linejoin="round"/>
<path d="M10.0809 12.152L7 6L12.4196 10.2796C13.1901 10.888 13.1941 12.0472 12.4277 12.6607C11.6614 13.2743 10.5189 13.0266 10.0809 12.152Z" stroke="#332701" stroke-width="1.5" stroke-linecap="round" stroke-linejoin="round"/>
<path d="M4 3.8201C2.14864 5.63913 1 8.17395 1 10.9777C1 16.513 5.47715 21.0002 11 21.0002C16.5228 21.0002 21 16.513 21 10.9777C21 6.1243 17.5581 2.07666 12.9872 1.15298C12.1512 0.984041 11.7332 0.899571 11.3666 1.20032C11 1.50107 11 1.98725 11 2.9596V3.96186" stroke="#332701" stroke-width="1.5" stroke-linecap="round" stroke-linejoin="round"/>
<defs>
<linearGradient id="paint0_linear_153_3103" x1="11" y1="1.00024" x2="11" y2="21.0002" gradientUnits="userSpaceOnUse">
<stop stop-color="#EDB50E"/>
<stop offset="1" stop-color="#FBCD42"/>
</linearGradient>
</defs>
</svg>
