<svg width="30" height="10" viewBox="0 0 30 10" fill="none" xmlns="http://www.w3.org/2000/svg">
<path d="M0 4.99967C0 4.03095 0 3.54659 0.0958336 3.1492C0.355897 2.07079 1.114 1.22845 2.08457 0.93949C2.44223 0.833008 2.87815 0.833008 3.75 0.833008H26.25C27.1218 0.833008 27.5578 0.833008 27.9154 0.93949C28.886 1.22845 29.6441 2.07079 29.9042 3.1492C30 3.54659 30 4.03095 30 4.99967C30 5.96839 30 6.45275 29.9042 6.85015C29.6441 7.92856 28.886 8.7709 27.9154 9.05986C27.5578 9.16634 27.1218 9.16634 26.25 9.16634H3.75C2.87815 9.16634 2.44223 9.16634 2.08457 9.05986C1.114 8.7709 0.355897 7.92856 0.0958336 6.85015C0 6.45275 0 5.96839 0 4.99967Z" fill="#332701"/>
</svg>
