<svg width="32" height="10" viewBox="0 0 32 10" fill="none" xmlns="http://www.w3.org/2000/svg">
<path d="M1 4.99967C1 4.03095 1 3.54659 1.09583 3.1492C1.3559 2.07079 2.114 1.22845 3.08457 0.93949C3.44223 0.833008 3.87815 0.833008 4.75 0.833008H27.25C28.1218 0.833008 28.5578 0.833008 28.9154 0.93949C29.886 1.22845 30.6441 2.07079 30.9042 3.1492C31 3.54659 31 4.03095 31 4.99967C31 5.96839 31 6.45275 30.9042 6.85015C30.6441 7.92856 29.886 8.7709 28.9154 9.05986C28.5578 9.16634 28.1218 9.16634 27.25 9.16634H4.75C3.87815 9.16634 3.44223 9.16634 3.08457 9.05986C2.114 8.7709 1.3559 7.92856 1.09583 6.85015C1 6.45275 1 5.96839 1 4.99967Z" fill="url(#paint0_linear_484_32822)"/>
<path d="M1 4.99967C1 4.03095 1 3.54659 1.09583 3.1492C1.3559 2.07079 2.114 1.22845 3.08457 0.93949C3.44223 0.833008 3.87815 0.833008 4.75 0.833008H27.25C28.1218 0.833008 28.5578 0.833008 28.9154 0.93949C29.886 1.22845 30.6441 2.07079 30.9042 3.1492C31 3.54659 31 4.03095 31 4.99967C31 5.96839 31 6.45276 30.9042 6.85015C30.6441 7.92856 29.886 8.7709 28.9154 9.05986C28.5578 9.16634 28.1218 9.16634 27.25 9.16634H4.75C3.87815 9.16634 3.44223 9.16634 3.08457 9.05986C2.114 8.7709 1.3559 7.92856 1.09583 6.85015C1 6.45276 1 5.96839 1 4.99967Z" stroke="#332701" stroke-width="1.5"/>
<defs>
<linearGradient id="paint0_linear_484_32822" x1="16" y1="0.833008" x2="16" y2="9.16634" gradientUnits="userSpaceOnUse">
<stop stop-color="#EDB50E"/>
<stop offset="1" stop-color="#FBCD42"/>
</linearGradient>
</defs>
</svg>
